<svg width="725" height="500" viewBox="0 0 725 500" fill="none" xmlns="http://www.w3.org/2000/svg">
<path d="M473.944 326.706L326.434 70.3452L432.405 9.47656L615.834 326.706H473.944Z" fill="white"/>
<path d="M81.0391 290.788L187.011 229.508L243.081 326.706H101.603L81.0391 290.788Z" fill="white"/>
<path d="M289.008 490.257H319.168V368.246H289.008V490.257Z" fill="white"/>
<path d="M666.968 493.136C633.244 493.136 612.954 475.725 611.857 451.186H643.663C643.663 458.863 648.461 470.104 669.025 470.516C682.734 470.516 689.177 462.427 689.177 456.395C688.354 446.799 676.29 445.976 663.404 443.92C650.517 441.864 639.55 439.533 631.599 435.42C621.454 430.211 614.599 418.969 614.599 406.083C614.599 384.285 633.518 367.012 665.049 367.012C695.62 367.012 714.95 383.051 717.007 406.905H686.298C686.024 400.462 684.79 390.317 666.694 390.317C654.493 390.317 646.405 392.785 645.719 401.285C645.719 413.76 671.081 412.937 690.822 418.147C709.741 422.945 721.805 434.735 721.805 451.186C721.805 481.483 697.265 493.136 666.968 493.136Z" fill="white"/>
<path d="M205.246 181.94L311.218 120.797L430.076 326.708H319.169V356.868H289.009V326.571L205.246 181.94Z" fill="white"/>
<path d="M207.985 493.136C172.89 493.136 144.375 464.484 144.375 429.8C144.375 394.704 172.89 367.012 207.985 367.012C221.283 367.012 233.347 370.576 243.903 377.842V326.707H274.063V490.257H243.903V482.169C233.347 489.023 221.283 493.136 207.985 493.136ZM173.301 429.8C173.301 448.718 189.478 464.484 208.808 464.484C227.727 464.484 243.903 448.718 243.903 429.8C243.903 410.881 227.727 394.704 208.808 394.704C189.478 394.704 173.301 410.881 173.301 429.8Z" fill="white"/>
<path d="M430.897 326.707H460.646V490.257H430.897V482.169C420.753 489.023 408.277 493.136 394.568 493.136C359.884 493.136 331.369 464.484 331.369 429.8C331.369 394.704 359.884 367.012 394.568 367.012C408.277 367.012 420.341 370.576 430.897 377.842V326.707ZM360.707 429.8C360.707 448.718 376.883 464.484 395.391 464.484C414.721 464.484 430.897 448.718 430.897 429.8C430.897 410.881 414.721 394.704 395.391 394.704C376.883 394.704 360.707 410.881 360.707 429.8Z" fill="white"/>
<path d="M533.99 493.136C499.443 493.136 470.791 464.484 470.791 429.8C470.791 394.704 499.443 367.012 533.99 367.012C547.288 367.012 559.763 370.576 569.908 377.842V368.108H600.068V490.257H569.908V482.168C559.763 489.023 547.699 493.136 533.99 493.136ZM500.129 429.8C500.129 448.718 516.305 464.484 535.224 464.484C554.143 464.484 569.908 448.718 569.908 429.8C569.908 410.881 554.143 394.704 535.224 394.704C516.305 394.704 500.129 410.881 500.129 429.8Z" fill="white"/>
<path d="M33.4696 429.8C33.4696 448.718 49.6464 464.484 68.565 464.484C87.8949 464.484 104.072 448.718 104.072 429.8C104.072 410.881 87.8949 394.704 68.565 394.704C49.6464 394.704 33.4696 410.881 33.4696 429.8ZM67.7425 493.136C33.0583 493.136 4.40625 464.484 4.40625 429.8C4.40625 394.704 33.0583 367.012 67.7425 367.012C81.0403 367.012 93.5156 370.576 104.072 377.842V368.108H133.821V490.257H104.072V482.168C93.9269 489.023 81.4516 493.136 67.7425 493.136Z" fill="white"/>
</svg>
