<svg width="66" height="21" viewBox="0 0 66 21" fill="none" xmlns="http://www.w3.org/2000/svg">
<g clip-path="url(#clip0_373_3296)">
<path d="M40.5877 16.0339C36.7948 18.8295 31.2973 20.3211 26.5641 20.3211C19.9273 20.3211 13.9525 17.8664 9.43239 13.7837C9.07725 13.4627 9.39545 13.0252 9.82162 13.2752C14.6997 16.1134 20.7314 17.8209 26.9618 17.8209C31.1638 17.8209 35.7862 16.9515 40.0365 15.1475C40.6786 14.8747 41.2155 15.5679 40.5877 16.0339Z" fill="white"/>
<path d="M42.1654 14.2323C41.6824 13.6129 38.9606 13.9397 37.739 14.0846C37.3668 14.13 37.31 13.8061 37.6452 13.5732C39.813 12.0475 43.37 12.4879 43.7848 12.9993C44.1996 13.5135 43.6768 17.079 41.6398 18.7809C41.3273 19.0422 41.029 18.903 41.1682 18.5564C41.6256 17.4143 42.6512 14.8545 42.1654 14.2323Z" fill="white"/>
<path d="M37.8251 2.80142V1.31838C37.8251 1.09394 37.9956 0.943359 38.2002 0.943359H44.8398C45.0528 0.943359 45.2233 1.09678 45.2233 1.31838V2.58834C45.2205 2.80142 45.0415 3.07985 44.7233 3.52022L41.2827 8.43244C42.5612 8.40119 43.9107 8.59154 45.0699 9.24499C45.3313 9.39273 45.4023 9.60865 45.4222 9.82173V11.4042C45.4222 11.6201 45.1835 11.873 44.9335 11.7423C42.8908 10.6712 40.1775 10.5547 37.9189 11.7537C37.6888 11.8787 37.4473 11.6287 37.4473 11.4127V9.9098C37.4473 9.66831 37.4501 9.25635 37.6916 8.88986L41.6776 3.17361H38.2087C37.9956 3.17361 37.8251 3.02303 37.8251 2.80142Z" fill="white"/>
<path d="M13.6035 12.0538H11.5835C11.3903 12.0396 11.2369 11.8947 11.2227 11.71V1.3429C11.2227 1.1355 11.396 0.970716 11.6119 0.970716H13.4955C13.6916 0.979234 13.8478 1.12982 13.862 1.31733V2.67252H13.899C14.3905 1.36278 15.3138 0.751953 16.5582 0.751953C17.8225 0.751953 18.6123 1.36278 19.1805 2.67252C19.6692 1.36278 20.78 0.751953 21.9705 0.751953C22.8171 0.751953 23.7433 1.10141 24.3087 1.88554C24.9479 2.75775 24.8172 4.02488 24.8172 5.13574L24.8144 11.6787C24.8144 11.8861 24.6411 12.0538 24.4251 12.0538H22.408C22.2063 12.0396 22.0443 11.8776 22.0443 11.6787V6.1841C22.0443 5.74657 22.0841 4.6556 21.9875 4.2408C21.8369 3.54473 21.3852 3.3487 20.7999 3.3487C20.3113 3.3487 19.7999 3.67542 19.5925 4.19818C19.3851 4.72094 19.405 5.59599 19.405 6.1841V11.6787C19.405 11.8861 19.2317 12.0538 19.0157 12.0538H16.9986C16.794 12.0396 16.6349 11.8776 16.6349 11.6787L16.6321 6.1841C16.6321 5.02778 16.8224 3.32597 15.3877 3.32597C13.9359 3.32597 13.9927 4.98516 13.9927 6.1841V11.6787C13.9927 11.8861 13.8194 12.0538 13.6035 12.0538Z" fill="white"/>
<path d="M50.9383 0.751953C53.9356 0.751953 55.5579 3.32597 55.5579 6.59889C55.5579 9.76101 53.7652 12.2697 50.9383 12.2697C47.9949 12.2697 46.3926 9.69567 46.3926 6.48809C46.3926 3.26063 48.0148 0.751953 50.9383 0.751953ZM50.9554 2.86856C49.4666 2.86856 49.3729 4.89709 49.3729 6.16137C49.3729 7.42849 49.353 10.1332 50.9383 10.1332C52.5037 10.1332 52.5776 7.95125 52.5776 6.62162C52.5776 5.74657 52.5407 4.70105 52.2765 3.87146C52.0492 3.14982 51.5974 2.86856 50.9554 2.86856Z" fill="white"/>
<path d="M59.4444 12.0538H57.4329C57.2312 12.0396 57.0692 11.8776 57.0692 11.6787L57.0664 1.3088C57.0835 1.11845 57.2511 0.970716 57.4556 0.970716H59.3279C59.504 0.979234 59.6489 1.09857 59.6887 1.26051V2.84583H59.7257C60.291 1.42813 61.0837 0.751953 62.4787 0.751953C63.385 0.751953 64.2685 1.07868 64.8368 1.97362C65.3652 2.80321 65.3652 4.19818 65.3652 5.20108V11.727C65.3425 11.9089 65.1748 12.0538 64.976 12.0538H62.9503C62.7656 12.0396 62.6122 11.9032 62.5923 11.727V6.09602C62.5923 4.96243 62.723 3.30324 61.328 3.30324C60.8365 3.30324 60.3848 3.63281 60.1603 4.13284C59.8762 4.7664 59.8393 5.39712 59.8393 6.09602V11.6787C59.8365 11.8861 59.6603 12.0538 59.4444 12.0538Z" fill="white"/>
<path d="M32.5321 7.10355V6.66602C31.0718 6.66602 29.5291 6.97854 29.5291 8.70023C29.5291 9.57244 29.9808 10.1634 30.7565 10.1634C31.3247 10.1634 31.8332 9.81394 32.1543 9.24572C32.552 8.54681 32.5321 7.89052 32.5321 7.10355ZM34.5692 12.0271C34.4357 12.1465 34.2425 12.155 34.0919 12.0754C33.4214 11.5186 33.3021 11.26 32.9327 10.7288C31.8247 11.8595 31.0406 12.1976 29.603 12.1976C27.904 12.1976 26.5801 11.1492 26.5801 9.04969C26.5801 7.41038 27.4693 6.29384 28.7336 5.74835C29.8303 5.26537 31.3616 5.18014 32.5321 5.04661V4.78523C32.5321 4.30508 32.5691 3.73687 32.2878 3.32207C32.0406 2.94989 31.569 2.79647 31.1542 2.79647C30.3843 2.79647 29.6967 3.19138 29.5291 4.00961C29.495 4.19144 29.3615 4.37043 29.1797 4.37895L27.2193 4.16871C27.0545 4.13178 26.8727 3.99825 26.9182 3.74539C27.3699 1.37025 29.5149 0.654297 31.4355 0.654297C32.4185 0.654297 33.7027 0.915676 34.4783 1.66004C35.4613 2.57771 35.3675 3.80221 35.3675 5.13468V8.28259C35.3675 9.22867 35.7596 9.64347 36.1289 10.1549C36.2596 10.3367 36.288 10.5555 36.1233 10.6918C35.7113 11.0356 34.9783 11.6748 34.5749 12.0328L34.5692 12.0271Z" fill="white"/>
<path d="M6.04972 7.10355V6.66602C4.5894 6.66602 3.0467 6.97854 3.0467 8.70023C3.0467 9.57244 3.49843 10.1634 4.27404 10.1634C4.84226 10.1634 5.35081 9.81394 5.67185 9.24572C6.0696 8.54681 6.04972 7.89052 6.04972 7.10355ZM8.08677 12.0271C7.95324 12.1465 7.76004 12.155 7.60947 12.0754C6.93897 11.5186 6.81965 11.26 6.45031 10.7288C5.34229 11.8595 4.55815 12.1976 3.12056 12.1976C1.4216 12.1976 0.0976562 11.1492 0.0976562 9.04969C0.0976562 7.41038 0.986914 6.29384 2.25119 5.74835C3.34785 5.26537 4.87919 5.18014 6.04972 5.04661V4.78523C6.04972 4.30508 6.08665 3.73687 5.80538 3.32207C5.55821 2.94989 5.08659 2.79647 4.67179 2.79647C3.90186 2.79647 3.21432 3.19138 3.0467 4.00961C3.0126 4.19144 2.87907 4.37043 2.69724 4.37895L0.736899 4.16871C0.572116 4.13178 0.390287 3.99825 0.435744 3.74539C0.887476 1.37025 3.03249 0.654297 4.95306 0.654297C5.93607 0.654297 7.22024 0.915676 7.99585 1.66004C8.97887 2.57771 8.88511 3.80221 8.88511 5.13468V8.28259C8.88511 9.22867 9.27718 9.64347 9.64652 10.1549C9.77721 10.3367 9.80562 10.5555 9.64084 10.6918C9.22888 11.0356 8.49588 11.6748 8.09245 12.0328L8.08677 12.0271Z" fill="white"/>
</g>
<defs>
<clipPath id="clip0_373_3296">
<rect width="65.3462" height="19.7231" fill="white" transform="translate(0.0585938 0.626953)"/>
</clipPath>
</defs>
</svg>
