<svg width="64" height="33" viewBox="0 0 64 33" fill="none" xmlns="http://www.w3.org/2000/svg">
<g clip-path="url(#clip0_373_2957)">
<mask id="mask0_373_2957" style="mask-type:luminance" maskUnits="userSpaceOnUse" x="0" y="0" width="64" height="33">
<path fill-rule="evenodd" clip-rule="evenodd" d="M0.775391 0.710938H63.4947V32.2678H0.775391V0.710938Z" fill="white"/>
</mask>
<g mask="url(#mask0_373_2957)">
<path fill-rule="evenodd" clip-rule="evenodd" d="M63.4772 22.3033C63.4548 22.136 62.7386 19.9853 62.1262 20.6746C61.5148 21.3646 59.9453 23.9785 54.9071 26.7701C52.4283 28.1437 52.2357 26.4175 52.1125 25.7201C52.1125 25.7201 55.537 23.2781 57.2851 20.0441C58.4727 17.8459 57.7075 17.3452 57.2214 16.8479C56.7799 16.3968 55.6759 15.3768 54.2419 16.4442C52.8084 17.5115 49.37 20.9537 49.7432 24.7278C49.1846 25.3035 47.5585 26.66 46.5064 26.4183C45.4544 26.1748 46.5646 23.8701 47.3508 22.2965C48.1339 20.7294 49.6703 19.4726 50.1425 18.7608C50.6154 18.0494 50.3522 17.8217 50.2582 17.7086C50.1632 17.5955 49.9447 17.4388 49.6059 16.8132C49.2674 16.1881 48.7808 16.6235 48.7808 16.6235C46.5152 18.137 44.9219 22.1311 44.9219 22.1311C44.4667 22.6493 43.7841 22.4459 43.6535 22.3943C43.4537 22.3149 43.3035 21.8159 43.2631 21.5604C43.23 21.3548 43.0937 20.5104 42.9837 20.2798C42.8743 20.0496 42.7552 19.9348 42.1692 20.1176C41.486 20.3308 40.9953 20.7567 40.7965 20.9911C40.5964 21.2251 40.6893 21.2792 40.7387 22.0218C40.7624 22.3877 40.7947 22.3979 40.5426 23.0387C40.1625 24.007 39.5028 25.2429 39.2947 25.6579C39.1153 26.0156 37.8162 27.7713 37.2902 27.8126C36.8216 27.8503 36.6485 27.0856 36.6485 27.0856C36.6485 27.0856 36.3796 25.3187 36.5732 24.4452C45.6747 14.0181 47.9531 6.65889 47.9531 6.65889C47.9941 6.53451 48.207 6.10417 47.5575 5.12385C46.7162 3.85288 45.8385 3.90705 45.8385 3.90705C45.8385 3.90705 45.2253 3.82705 43.8651 5.25877C35.204 14.372 34.3447 23.9414 34.3447 23.9414C34.2585 24.1203 34.2251 24.152 33.8513 24.5733C33.4579 25.0164 32.8842 25.3321 32.8842 25.3321C32.8842 25.3321 32.3348 25.4771 32.2174 25.0041C32.1422 24.6989 32.1926 24.4649 32.2333 24.0555C32.2709 23.6757 32.8044 22.423 32.8044 22.423C32.8044 22.423 33.6067 20.6541 33.7845 20.129C33.9625 19.6037 33.9209 19.0225 33.7561 18.6117C33.5919 18.2012 32.8525 17.7799 32.6152 17.6153C32.3843 17.4558 32.1377 17.2119 32.1701 16.8619C32.1813 16.7477 32.0757 16.6519 32.5196 15.6542C32.9642 14.6561 32.1447 14.4141 31.9061 14.3722C31.6683 14.3306 31.0096 14.1259 30.407 14.6629C29.3396 15.6151 29.308 17.2827 29.308 17.2827C29.3046 17.503 29.3834 17.7192 29.2784 17.9672C29.2186 18.1098 29.0706 18.382 28.6862 19.1787C28.296 19.9878 27.475 21.6093 26.9675 22.5122C26.5402 23.2717 25.9502 24.1452 25.5695 24.5798C25.3115 24.8737 24.9672 25.111 24.9672 25.111C24.9672 25.111 24.5851 25.4044 24.5758 24.6811C24.5657 23.9262 25.5875 21.6243 25.5875 21.6243C25.5875 21.6243 26.3035 19.8242 26.396 19.6074C26.5269 19.2994 26.6128 18.8939 26.4105 18.6433C26.1148 18.2769 25.3478 18.0884 25.0097 18.2604C24.6725 18.4323 24.0669 19.4743 23.7073 20.0679C23.2526 20.8201 22.5154 22.2856 21.6684 23.7364C20.8483 25.1401 19.9342 25.6499 19.9342 25.6499C19.9342 25.6499 19.4419 25.9539 19.0607 25.6002C18.8436 25.3993 17.0628 23.8014 21.3063 18.9952C23.0547 17.0153 23.9681 16.6835 24.8771 17.3329C25.2296 17.585 25.5756 18.0148 26.0267 18.0276C26.7923 18.0489 27.0429 17.089 27.0429 17.089C27.0687 16.9222 27.7393 15.092 24.877 15.0599C20.2307 15.0072 17.5717 20.3414 17.5717 20.3414C16.6851 16.9389 14.1713 16.683 14.1713 16.683C17.0641 14.6152 18.7142 13.2936 20.8132 9.60359C22.9122 5.91308 19.8556 2.99948 19.8556 2.99948C18.5579 1.403 15.3818 -0.261699 10.0285 1.40074C4.43455 3.1384 3.97136 4.52222 3.41372 6.21727C2.85583 7.9123 3.9499 7.47519 4.62175 7.14441C5.29385 6.81287 7.92916 5.71897 7.92916 5.71897C7.92916 5.71897 1.25317 26.6616 1.05561 27.6798C0.878525 28.5943 -0.00197402 31.0794 2.6706 31.4156C2.6706 31.4156 3.0842 31.4786 3.46132 31.339C3.83843 31.1999 3.84829 30.9502 3.84829 30.9502C4.00467 30.3531 4.25845 29.4132 4.32726 29.3196C5.79057 33.8018 10.5263 32.4963 13.4568 29.869C15.5853 27.9619 16.8446 25.3572 16.8446 25.3572C18.6487 29.3577 20.8262 27.2446 20.8262 27.2446C21.7115 26.5196 22.8485 24.8575 22.8485 24.8575C23.5325 28.1209 25.9182 26.7604 25.9182 26.7604C27.0402 26.0809 28.1658 24.0286 28.388 23.6552C29.6577 21.5196 30.8542 18.9294 30.8542 18.9294C30.8542 18.9294 31.0148 18.939 31.3756 19.258C31.6969 19.5427 31.5388 20.0075 31.4055 20.4368C31.2712 20.8665 30.7521 21.9625 30.4819 22.8987C30.2053 23.8585 30.1528 24.7844 30.5227 25.621C30.8852 26.4396 31.9478 27.136 32.6751 27.2194C33.6032 27.3262 34.4665 26.5728 34.4665 26.5728C34.5992 28.9503 36.4251 29.7908 36.4251 29.7908C38.8055 31.053 41.0273 27.0453 41.0273 27.0453C42.5428 24.5249 42.4171 23.8912 42.5472 23.5053C42.7211 23.7355 43.1547 23.987 44.0639 24.167C43.8209 25.053 44.0774 25.9178 44.0774 25.9178C44.0774 25.9178 44.7698 27.6948 46.3344 28.1257C48.0105 28.5875 50.2227 26.865 50.2227 26.865C50.2227 26.865 52.7308 31.253 58.3448 27.4415C63.9583 23.6301 63.4993 22.4707 63.4772 22.3033ZM9.17962 5.19056C9.17962 5.19056 15.2467 2.23284 17.862 3.7265C20.4781 5.22015 19.6814 7.8945 15.6961 12.3316C15.6961 12.3316 12.6491 15.1118 10.8306 15.895C10.8306 15.895 8.53812 16.2563 7.88033 16.5883C7.88033 16.5883 8.42467 14.7584 9.0785 12.6639C9.88896 10.0713 10.9419 7.2061 10.3586 6.44673C9.64799 5.52109 9.17962 5.19056 9.17962 5.19056ZM12.4308 27.4466C12.4308 27.4466 8.83112 31.063 7.62013 29.6631C6.47228 28.3365 8.54034 26.551 9.34956 26.1108C10.3985 25.5405 13.5725 24.9457 12.4308 27.4466ZM14.03 25.0981C14.03 25.0981 10.748 20.6707 5.16238 25.8788L7.0102 19.3866C7.0102 19.3866 8.96579 19.5722 11.6958 18.2812C11.6958 18.2812 17.5979 18.4713 14.03 25.0981ZM44.5009 7.6718C45.0319 7.16547 44.8889 7.7207 44.8317 7.89024C44.8317 7.89024 42.4538 14.6162 37.3435 20.6465C37.3435 20.6465 40.0432 11.9326 44.5009 7.6718ZM55.7787 17.8069C55.9637 17.6791 56.198 17.8654 56.0538 18.24C56.0022 18.3736 54.9887 21.1353 52.0205 23.1859C52.0205 23.1859 52.3253 20.1962 55.7787 17.8069ZM50.104 15.5038C50.7451 15.8182 50.7451 15.6515 50.912 15.3936C51.0788 15.1356 52.0285 14.3913 52.0285 14.3913C52.0285 14.3913 52.9137 13.8544 53.8219 12.5636C54.6908 11.327 53.9327 10.5137 53.2152 9.81098C52.4971 9.10829 50.845 10.061 49.5937 11.9955C48.342 13.9296 49.4645 15.1893 50.104 15.5038Z" fill="white"/>
</g>
<path fill-rule="evenodd" clip-rule="evenodd" d="M58.0781 28.0117H58.6151V28.0922H58.3913V28.684H58.302V28.0922H58.0781V28.0117Z" fill="white"/>
<path fill-rule="evenodd" clip-rule="evenodd" d="M59.2423 28.6844V28.2871C59.2423 28.2673 59.2446 28.182 59.2446 28.119H59.2423L59.0566 28.6844H58.9681L58.7821 28.1203H58.7804C58.7804 28.182 58.7821 28.2673 58.7821 28.2869V28.6844H58.6953V28.0117H58.8233L59.0125 28.5802L59.202 28.0117H59.329V28.6844H59.2423Z" fill="white"/>
</g>
<defs>
<clipPath id="clip0_373_2957">
<rect width="63.1138" height="31.5569" fill="white" transform="translate(0.775391 0.710938)"/>
</clipPath>
</defs>
</svg>
