<svg width="86" height="31" viewBox="0 0 86 31" fill="none" xmlns="http://www.w3.org/2000/svg">
<g clip-path="url(#clip0_373_3354)">
<path fill-rule="evenodd" clip-rule="evenodd" d="M25.6744 13.594C25.1222 13.0418 23.3866 13.2785 20.0731 13.4363C20.7042 10.675 21.1776 8.22937 22.4399 6.33596C28.199 6.65153 35.2204 7.44045 43.2674 7.44045C59.1247 7.36156 59.2825 1.52353 59.2825 1.52353C52.4978 3.41694 43.2674 2.8647 36.246 2.23356C27.4101 1.36575 18.653 -0.606559 11.316 1.28685C2.7168 3.57473 1.92787 9.965 2.24344 12.7262C5.7147 8.22937 10.3693 6.57263 16.2863 6.25707C16.8385 6.25707 17.4696 6.17817 18.0219 6.17817C16.9174 7.28266 16.1285 9.09718 15.2607 11.8584C15.1029 12.4896 14.8662 13.0418 14.7084 13.594C7.37144 14.2252 5.95138 17.6175 6.34584 18.4854C6.81919 19.4321 9.42263 18.1698 12.6572 17.8542C12.8939 17.8542 13.0517 17.7753 13.2884 17.7753C12.0261 21.0888 10.606 23.3767 8.31814 24.7967C4.84689 26.8479 1.29673 25.9012 0.507812 25.349C0.823381 29.2147 6.58251 31.2659 11.4738 28.5836C15.4184 26.4535 17.6274 21.3255 18.8897 17.5387C19.9942 17.5387 21.0198 17.5387 22.1243 17.4598C25.1222 17.302 26.3845 14.2252 25.6744 13.594ZM85.0014 9.25497C84.8436 9.17608 84.6858 9.17608 84.528 9.17608C84.3702 9.17608 84.2125 9.25497 84.0547 9.33386C83.8969 9.41275 83.818 9.49165 83.7391 9.64943C83.6602 9.72832 83.5813 9.88611 83.5024 10.0439C83.4235 10.3595 83.4235 10.675 83.5813 10.9117C82.4768 11.9373 81.4512 12.6473 80.899 12.4896C80.189 12.2529 80.7412 10.3595 81.4512 8.62383C81.7668 8.70272 82.0824 8.62383 82.319 8.46605C82.5557 8.30826 82.7924 8.07159 82.8713 7.75602C82.9502 7.44045 82.9502 7.04599 82.7924 6.80931C82.6346 6.49374 82.3979 6.25706 82.0824 6.17817C81.9246 6.09928 81.7668 6.09928 81.609 6.09928C81.4512 6.09928 81.2934 6.17817 81.1357 6.25707C80.9779 6.33596 80.8201 6.41485 80.7412 6.57263C80.6623 6.73042 80.5834 6.80931 80.5045 7.04599C80.3467 7.51934 80.5045 7.99269 80.8201 8.38716C79.8734 10.0439 78.9267 11.464 78.1378 11.2273C77.2699 10.9906 77.3488 9.25497 77.5855 7.28266C77.9011 7.12488 78.2955 6.80931 78.4533 6.33596C78.5322 6.02039 78.5322 5.62593 78.3744 5.38925C78.2167 5.07368 77.98 4.83701 77.6644 4.75811C77.5066 4.67922 77.3488 4.67922 77.1911 4.67922C77.0333 4.67922 76.8755 4.75811 76.7177 4.83701C76.5599 4.9159 76.4021 4.99479 76.3232 5.15257C76.2443 5.31036 76.1655 5.38925 76.0866 5.62593C75.9288 6.25707 76.1655 6.8882 76.7177 7.12488C76.2443 8.9394 75.6132 10.7539 74.9032 10.5961C74.3509 10.4384 73.9565 9.17608 73.6409 7.75602C73.7987 7.59823 73.9565 7.36156 74.0354 7.20377C74.1143 6.9671 74.1932 6.80931 74.1932 6.57263C74.1932 6.33596 74.1143 6.09928 73.9565 5.9415C73.7987 5.78371 73.6409 5.62593 73.4042 5.54704C73.2464 5.46814 73.0887 5.46814 72.9309 5.46814C72.7731 5.46814 72.6153 5.54704 72.4575 5.62593C72.2997 5.70482 72.2208 5.78371 72.1419 5.9415C72.0631 6.02039 71.9842 6.17817 71.9053 6.33596C71.8264 6.49374 71.8264 6.65153 71.8264 6.80931C71.8264 6.9671 71.9053 7.12488 71.9842 7.28266C72.142 7.36156 72.2208 7.51934 72.3786 7.59823C72.5364 7.67713 72.6942 7.75602 72.852 7.75602L73.0887 12.7262L81.2146 15.3297L84.2125 11.464C84.3702 11.5428 84.528 11.5428 84.6858 11.5428C84.8436 11.5428 85.0014 11.5428 85.1592 11.464C85.317 11.3851 85.4747 11.3062 85.5536 11.1484C85.6325 10.9906 85.7114 10.9117 85.7903 10.7539C85.9481 10.1228 85.6325 9.49165 85.0014 9.25497Z" fill="white"/>
<path fill-rule="evenodd" clip-rule="evenodd" d="M75.6906 23.0609C74.1917 25.7432 72.0616 27.0844 70.8782 26.0588C69.7737 25.0332 70.0104 22.1142 71.5093 19.4318C73.0083 16.7495 75.1384 15.4083 76.3218 16.4339C77.5052 17.3806 77.1896 20.3785 75.6906 23.0609ZM73.6394 13.9094C73.6394 13.9094 71.746 14.6194 70.4049 15.8817C69.9315 16.2761 69.537 16.7495 69.1426 17.2228C68.7481 17.6962 68.5114 18.1695 68.1959 18.7218C67.8014 19.4318 67.407 20.2207 67.0914 21.0097C67.0914 21.0097 66.3025 22.6664 65.7502 23.4553C65.198 24.2442 64.1724 25.0332 63.699 25.2698C63.2257 25.5065 62.6734 25.6643 62.2001 25.8221C58.7288 26.8477 58.0977 24.3231 58.8866 23.2186C59.2022 22.8242 61.0956 21.3252 62.3579 20.2996C64.8824 18.2484 66.618 16.9073 67.8014 15.7239C69.0637 14.4616 68.2748 13.7516 67.2492 13.5938C64.8035 13.1993 63.699 13.8305 62.989 14.4616C62.1212 15.1716 57.0721 21.3252 57.0721 21.3252C57.0721 21.3252 65.2769 5.31011 66.6969 2.54888C67.8014 0.26101 62.4367 -0.0545582 60.9378 3.25892C60.07 5.15233 54.1531 18.8796 53.443 20.5363C52.1019 23.6131 52.023 24.0865 51.3918 24.6387H51.3129C50.6818 25.191 49.814 25.6643 49.1828 25.6643C48.7884 25.6643 48.6306 25.4276 48.5517 25.0332C48.4728 24.5598 48.5517 24.0076 48.7095 23.3764C48.7884 22.982 48.9462 22.5086 49.104 22.0353C49.2617 21.5619 49.4195 21.0886 49.6562 20.5363C49.814 20.063 50.0507 19.5896 50.2873 19.1163L50.8396 17.854C50.9974 17.4595 51.1552 17.1439 51.3129 16.8284C51.4707 16.5128 51.4707 16.355 51.5496 16.1972C51.7863 15.4083 51.7074 14.6194 51.4707 14.2249C51.234 13.7516 50.9185 13.5149 50.3662 13.5149C49.814 13.5149 49.3406 13.6727 48.8673 13.9094C48.315 14.2249 47.8417 14.5405 47.3683 15.0927C46.9739 15.5661 46.5005 16.1183 46.1061 16.6706C45.8694 17.0651 45.5538 17.3806 45.2382 17.7751C44.9227 18.1695 44.6071 18.564 44.3704 18.8796C43.976 19.3529 43.5815 19.9052 43.187 20.3785H42.8715C42.8715 20.2996 42.9504 20.1419 43.0293 19.9052C43.1081 19.6685 43.187 19.4318 43.3448 19.1163C43.5815 18.4062 43.8971 17.7751 44.1337 17.0651C44.2915 16.7495 44.3704 16.4339 44.4493 16.1183C44.5282 15.8028 44.6071 15.645 44.686 15.4872C44.8438 14.8561 44.8438 14.3827 44.686 14.0672C44.5282 13.6727 44.2126 13.5149 43.5815 13.5149C43.0293 13.5149 42.477 13.6727 42.0825 13.9883C41.6881 14.3038 41.2936 14.7772 41.0569 15.2505C40.6625 16.0395 40.3469 16.8284 40.0313 17.6173C39.2424 19.5107 38.5324 21.4041 37.9013 23.3764C37.7435 23.7709 37.6646 24.1654 37.5068 24.6387C36.7179 25.0332 35.929 25.3487 35.14 25.5854C34.8245 25.6643 34.43 25.7432 34.1933 25.5065C34.0355 25.3487 34.0355 25.0332 34.0355 24.7965C34.1933 23.5342 34.7456 22.2719 35.2189 21.0886C36.0867 19.1163 36.9546 17.0651 37.7435 15.0139C37.8224 14.7772 37.9013 14.4616 37.8224 14.2249C37.6646 13.8305 37.1912 13.6727 36.7968 13.5938C35.8501 13.436 34.8245 13.5938 34.2722 14.3038C34.1144 14.5405 33.9566 14.8561 33.7989 15.0927L30.801 21.9564C30.1698 23.3764 29.3809 24.9543 27.8819 25.5065C27.6453 25.5854 27.3297 25.6643 27.093 25.5065C26.7775 25.3487 26.6197 24.9543 26.6197 24.6387C26.6197 24.3231 26.7775 23.9287 26.8563 23.6131C28.1186 20.5363 28.9864 18.4062 30.2487 15.4083C30.3276 15.2505 30.6432 14.5405 30.6432 14.2249C30.6432 14.146 30.6432 13.9883 30.5643 13.9094C30.4854 13.8305 30.4065 13.7516 30.3276 13.6727C29.5387 13.2782 28.592 13.5149 27.8819 14.0672C26.7775 14.8561 26.1463 16.1183 25.5941 17.3806C24.9629 18.7218 24.3318 20.063 23.7796 21.483C23.1484 23.0609 22.4384 24.5598 22.1228 26.2954C21.965 27.1633 21.965 28.2678 22.5962 28.8989C22.9906 29.2934 23.6218 29.4511 24.174 29.4511C26.4619 29.53 28.592 28.3466 30.2487 26.7688C30.3276 27.6366 30.4065 28.5833 31.1165 28.9778C31.5899 29.2933 32.1421 29.2934 32.6155 29.2145C33.6411 29.1356 34.6667 28.7411 35.6923 28.3466C36.0867 28.1889 36.4812 28.0311 36.8757 27.7944C36.8757 27.9522 36.8757 28.11 36.9546 28.2678C37.0334 28.5833 37.1912 28.82 37.4279 29.0567C37.6646 29.2145 37.9802 29.3722 38.4535 29.3722C38.848 29.3722 39.1635 29.2934 39.4791 29.1356C39.7947 28.9778 40.1102 28.6622 40.4258 28.1889L46.8161 19.6685H47.0528C46.7372 20.4574 46.4216 21.3252 46.1061 22.1142C45.8694 22.8242 45.6327 23.5342 45.4749 24.2442C45.0805 25.901 44.9227 27.1633 45.1593 28.0311C45.3171 28.8989 45.7116 29.3722 46.3427 29.3722C46.9739 29.3722 47.5261 29.2934 48.1572 29.1356C48.7884 28.9778 49.3406 28.7411 49.8929 28.5044C50.2873 28.3466 50.6818 28.11 51.0763 27.8733C51.0763 28.0311 50.9974 28.2678 50.9974 28.4255C50.9974 28.8989 51.0763 28.9778 51.234 29.2145C51.4707 29.4511 51.7074 29.4511 52.1808 29.4511C52.4963 29.4511 52.6541 29.4511 52.9697 29.2145C53.2852 28.9778 54.3108 27.4788 55.0998 26.2954C55.2575 26.1377 55.4153 25.901 55.5731 25.7432C55.2575 27.1633 55.8887 29.1356 57.7821 29.4511C59.6755 29.7667 62.6734 29.2934 66.5391 26.2954C66.618 26.6899 66.6969 27.0844 66.8547 27.4788C67.1703 28.1889 67.5647 28.7411 68.1959 29.2145C68.827 29.6878 69.6159 29.8456 70.6415 29.8456C71.3516 29.8456 72.0616 29.6878 72.6927 29.4511C73.4028 29.2145 74.0339 28.8989 74.665 28.5044C75.2962 28.11 75.8484 27.5577 76.4007 27.0055C77.4263 25.901 78.2941 24.6387 78.9252 23.2975C79.4775 22.0353 79.7141 21.0886 80.0297 19.5896C80.1875 18.8007 80.2664 18.0907 80.1875 17.4595C80.1875 17.4595 80.1086 15.8817 79.8719 15.7239C79.5564 15.645 73.6394 13.9094 73.6394 13.9094Z" fill="white"/>
</g>
<defs>
<clipPath id="clip0_373_3354">
<rect width="85.2036" height="29.979" fill="white" transform="translate(0.585938 0.498047)"/>
</clipPath>
</defs>
</svg>
