<svg width="84" height="25" viewBox="0 0 84 25" fill="none" xmlns="http://www.w3.org/2000/svg">
<g style="mix-blend-mode:luminosity" clip-path="url(#clip0_373_3335)">
<mask id="mask0_373_3335" style="mask-type:luminance" maskUnits="userSpaceOnUse" x="1" y="0" width="83" height="25">
<path fill-rule="evenodd" clip-rule="evenodd" d="M1.80469 0.654297H83.4173V24.322H1.80469V0.654297Z" fill="white"/>
</mask>
<g mask="url(#mask0_373_3335)">
<path fill-rule="evenodd" clip-rule="evenodd" d="M75.404 2.38817C72.1088 1.10161 68.4253 0.609674 64.9 0.657447C61.5551 0.702336 58.2179 1.18068 54.9262 1.74056C51.184 2.37726 47.4697 3.16734 43.7621 3.97824C37.3086 5.38958 30.8139 7.01529 24.211 7.56282C22.1795 7.73125 20.12 7.80353 18.127 7.30027C16.1661 6.80545 14.4158 5.75776 12.8774 4.47038C12.8873 4.97322 12.9665 5.48142 13.0935 5.96738C13.3421 6.9183 13.8979 7.7156 14.4954 8.48387C13.1615 8.58765 11.8188 8.66055 10.483 8.55306C9.23417 8.45278 7.99447 8.17109 6.81167 7.76276C5.73373 7.39109 4.62746 6.94919 3.71791 6.25998C3.08823 5.78268 2.37685 5.12046 1.80469 4.59063C1.80469 5.84568 2.46084 7.17837 3.16374 8.22339C4.13079 9.71648 5.35601 11.0916 6.71961 12.2513C8.00005 13.3404 9.42717 14.176 11.0495 14.6768C12.7905 15.2142 14.634 15.3724 16.4479 15.2513C17.4307 15.1855 18.408 15.04 19.3689 14.8246C20.1565 14.6482 20.9228 14.4111 21.7087 14.2223C21.9981 14.1529 22.2917 14.0714 22.5827 14.1746C22.9339 14.2993 22.9641 14.6543 22.9225 14.9765C22.8213 15.7634 22.3522 16.5663 21.7163 17.0456C21.1216 17.4938 20.4123 17.5377 19.7791 17.1362C19.216 16.779 18.7051 16.4141 18.0333 16.284C17.1881 16.1203 16.2534 16.2133 15.4042 16.2982C14.4416 16.3944 13.4824 16.5552 12.5124 16.5552C11.1875 16.5552 9.97099 16.237 8.74268 15.7762C7.8687 15.4487 6.92834 15.018 6.07939 14.6309C7.21648 17.1897 9.75379 19.003 12.1097 20.3749C15.1937 22.1708 18.6267 23.3163 22.1441 23.9026C25.678 24.4917 29.2602 24.4093 32.807 23.9699C36.4631 23.5171 40.0643 22.6964 43.5743 21.5854C46.6805 20.6022 49.707 19.3949 52.7005 18.1156C55.8996 16.7487 59.061 15.3003 62.3388 14.1233C64.9369 13.1905 67.6148 12.3594 70.3596 11.9904C73.056 11.6276 76.2916 11.5901 78.4801 13.4592C79.4825 14.3146 80.0624 15.5288 80.1218 16.8424C80.1836 17.5795 80.1886 18.3513 80.0959 19.0867C80.0362 19.559 79.9917 20.0628 79.8365 20.5155C83.1857 17.5524 84.4457 12.5382 82.4926 8.4291C81.5071 6.35553 79.3031 3.87363 75.404 2.38817Z" fill="white"/>
</g>
<path fill-rule="evenodd" clip-rule="evenodd" d="M67.5645 1.52115C60.664 0.864483 48.8045 3.66822 39.0172 5.80933C31.1722 7.52564 24.7938 8.60607 20.5116 8.4436C18.11 8.28176 15.7483 7.59688 13.8569 6.05788C14.1553 6.79773 15.6101 8.88221 16.2309 9.11221C13.7272 9.3171 11.1527 9.60517 8.6717 9.06733C6.69042 8.64643 4.50084 7.92676 2.93555 6.47876C4.14339 8.71788 5.99 10.7875 8.0261 12.3125C11.6668 15.0399 16.7294 14.9528 20.8907 13.6161C20.9675 13.5916 21.8132 13.347 22.2554 13.347C23.3253 13.3849 24.1043 14.1285 23.4918 15.859C22.9798 17.1606 21.9338 18.177 20.7267 18.1957C19.1244 18.1957 19.0149 16.9296 17.1832 16.9889C13.9772 16.9044 11.9194 18.3129 7.61693 15.9204C8.48966 16.7817 13.5419 22.2941 24.3632 23.4295C27.1209 23.7169 30.2154 23.48 31.6568 23.3295C41.0398 22.348 48.3572 19.1704 54.8135 16.3666C60.2904 13.911 66.8616 11.3544 71.779 11.0832C75.9067 10.7521 79.1111 12.079 80.3524 14.6336C80.9077 15.7758 81.0375 17.081 80.7583 18.4346C84.8775 12.5802 83.0604 2.69445 67.5645 1.52115Z" fill="#E8262B"/>
<path fill-rule="evenodd" clip-rule="evenodd" d="M8.32617 12.5352C8.33697 12.5436 8.33627 12.5429 8.32617 12.5352Z" fill="#E8262B"/>
<path fill-rule="evenodd" clip-rule="evenodd" d="M37.8174 8.03156C39.9596 7.44944 41.7606 8.58589 42.4589 10.1894C42.5481 10.3877 42.6447 10.4307 42.7432 10.4315C42.9384 10.4336 44.2257 10.2056 44.659 9.67559C44.659 9.67559 45.0949 11.269 43.2094 12.2219C43.2094 12.2219 42.9437 12.3511 42.9421 12.6323C42.9404 12.9002 42.7998 14.265 42.7266 14.6414C42.694 14.8095 42.5551 15.1694 42.8867 15.1832C43.1614 15.1943 43.978 14.9945 44.4888 13.5955C44.505 13.5083 44.4929 13.6013 44.4929 13.6013C44.1148 16.6865 42.1943 18.9834 40.2693 19.6022C38.9239 20.0346 39.1034 19.1541 39.336 18.6131C40.1367 16.5351 40.1543 15.5106 40.2728 14.1904C40.3965 12.8144 40.0654 8.74444 37.8174 8.03156ZM36.2721 10.784C35.6858 10.9105 35.3459 12.4571 35.2782 14.6501C35.211 16.8457 35.3723 18.7945 36.167 18.63C36.9598 18.4583 37.0246 16.4191 37.0785 14.2251C37.1391 12.0323 36.8293 10.6597 36.2721 10.784ZM39.4374 13.6701C39.3461 16.9392 38.4715 20.0624 36.0722 20.5863C33.8366 20.9548 32.6472 17.4296 32.9431 15.0345C33.0878 11.722 34.3183 9.37516 36.2437 8.84781C38.0707 8.3534 39.5193 10.422 39.4374 13.6701Z" fill="#F7EB1E"/>
<path fill-rule="evenodd" clip-rule="evenodd" d="M35.5784 7.68164C33.7082 8.86709 32.311 11.8621 32.1428 15.0003C32.1089 15.638 31.8255 20.1895 35.1984 21.7018C32.9913 22.0465 30.5879 22.3395 29.4073 22.3788C29.4073 22.3788 29.7503 21.2669 29.8221 19.386C29.8814 17.8334 29.6413 16.5399 29.073 16.623C28.6523 16.6853 28.1638 18.1564 28.1294 19.4497C28.0836 21.1575 28.4572 22.4202 28.4572 22.4202C27.1356 22.4546 24.7396 22.4937 21.7074 21.9032C22.1144 21.8389 25.53 19.9191 25.965 15.9195C26.4497 11.4649 22.5109 10.3021 20.7168 9.55691C23.2858 9.6368 25.0795 9.48608 28.8161 8.93504C28.8161 8.93504 28.3584 9.6541 28.3515 11.6657C28.3444 13.505 28.7401 14.4795 29.1053 14.4741C29.5366 14.468 29.9419 13.5136 30.0138 11.56C30.088 9.55505 29.7442 8.79008 29.7442 8.79008C31.4703 8.48306 32.6402 8.32616 35.5784 7.68164Z" fill="#F7EB1E"/>
<path fill-rule="evenodd" clip-rule="evenodd" d="M42.3086 6.23406C43.0488 6.41629 46.32 7.47634 46.5236 12.0032C46.7092 16.1488 44.9957 18.64 44.4796 19.2913C44.4796 19.2913 45.6032 18.9178 46.7692 18.4712C48.0357 17.9857 49.2893 17.4861 49.2893 17.4861C49.2893 17.4861 48.9361 16.5676 49.3689 14.9573C49.8382 13.2136 50.5094 12.7142 50.5094 12.7142C50.5094 12.7142 50.3483 13.4221 50.8598 14.749C51.3648 16.0597 51.9474 16.3998 51.9474 16.3998L53.8771 15.5373C53.8771 15.5373 53.2768 14.2269 54.1824 12.2552C54.9474 10.5892 55.8896 8.56379 55.1143 6.1243C54.7153 4.8674 54.1977 4.14463 53.9383 3.83741C53.6384 3.88806 51.2014 4.35034 50.658 4.45804C51.2527 4.70102 52.5296 5.46291 52.7635 7.57436C52.9247 9.02709 52.1788 10.2663 52.1788 10.2663C52.1788 10.2663 52.2528 9.61457 51.726 8.87142C51.2237 8.16307 50.7381 7.99401 50.7381 7.99401C50.7381 7.99401 50.6898 8.98241 50.1059 10.0698C49.6555 10.9073 49.0697 11.3611 49.0697 11.3611C49.0697 11.3611 49.5415 9.55115 49.0725 7.71418C48.6389 6.0162 47.726 5.35562 47.3369 5.14436C46.5225 5.31589 43.058 6.06954 42.3086 6.23406ZM59.4099 2.97915C59.6033 4.68002 59.3355 7.0118 58.66 7.16994C58.1065 7.29988 57.7946 4.70637 58.1911 3.14306C57.4838 3.24602 55.4618 3.56808 54.5751 3.72025C57.6591 7.21421 56.2086 11.9243 54.4598 15.2907C55.4943 14.8257 57.3107 14.0504 58.3165 13.64C57.8369 11.9136 58.1575 9.5355 58.7666 9.33885C59.2978 9.1667 59.7979 11.9781 59.2993 13.2465C60.2213 12.8503 61.5002 12.406 62.8456 11.9424C61.1326 11.1851 59.6602 5.98284 62.9566 2.63672C62.1836 2.68655 60.1258 2.89226 59.4099 2.97915Z" fill="#F7EB1E"/>
<path fill-rule="evenodd" clip-rule="evenodd" d="M77.8892 10.64C77.6397 10.6813 77.346 10.6531 77.0396 10.558C76.5568 10.4085 76.2176 10.2687 75.8048 10.1155L75.8349 8.47044C76.0352 8.88864 76.6582 9.38737 77.0028 9.34084C77.0952 9.32868 77.1735 9.25888 77.1911 9.17198C77.2186 9.03485 77.1422 8.85734 76.9757 8.67408C76.8086 8.4902 76.5075 8.1871 76.2512 7.90438C75.1127 6.64767 75.5922 5.79065 75.8565 5.56394C76.2341 5.23921 76.6969 5.31313 76.8872 5.35267C77.5863 5.49702 78.1341 6.07872 78.3921 6.65426C78.542 6.99093 78.6424 7.35891 78.5818 7.75364C78.4276 7.35355 77.4252 6.23831 77.0672 6.68226C76.8272 6.98022 77.3966 7.40977 77.9858 7.92929C78.781 8.63023 78.8788 9.15036 78.6836 9.89331C78.5735 10.313 78.2987 10.5712 77.8892 10.64Z" fill="#F7EB1E"/>
<path fill-rule="evenodd" clip-rule="evenodd" d="M63.8135 7.01756C63.8135 7.01756 63.7853 6.04379 64.172 5.11429C64.5593 4.18499 65.1327 3.67639 65.5143 4.01243C65.8796 4.33613 65.5903 4.97036 65.2775 5.35686C64.9651 5.74315 64.7704 5.92827 64.3677 6.28676C63.9656 6.64609 63.8135 7.01756 63.8135 7.01756ZM64.5016 7.75145C65.4086 6.90473 66.4476 6.16446 66.8328 5.08135C67.218 3.9972 67.2116 3.25775 66.4459 2.78127C65.7261 2.33403 64.4067 2.36161 63.1479 3.82464C61.7719 5.4242 61.511 8.19313 61.9055 9.53775C62.2445 10.6932 62.9084 11.7581 64.1797 11.509C66.4096 11.072 66.3314 7.86696 66.3314 7.86696C66.3314 7.86696 65.4993 9.33844 64.745 9.38641C63.9528 9.43666 63.7635 8.44064 64.5016 7.75145Z" fill="#F7EB1E"/>
<path fill-rule="evenodd" clip-rule="evenodd" d="M69.0014 5.07495C69.3105 4.31656 69.7738 3.89979 70.086 4.1716C70.3851 4.43332 70.1538 4.95119 69.9018 5.26686C69.6499 5.58274 69.4931 5.73449 69.1679 6.02854C68.8427 6.323 68.7218 6.6261 68.7218 6.6261C68.7218 6.6261 68.6925 5.83333 69.0014 5.07495ZM69.5235 8.51085C68.7749 8.57057 68.6899 7.785 69.2854 7.21997C70.0179 6.52665 70.858 5.9192 71.1639 5.035C71.4709 4.15039 71.4607 3.54912 70.8354 3.16447C70.248 2.8037 69.1629 2.85704 68.1491 4.05423C67.0398 5.36282 66.8042 7.64703 67.1178 8.74497C67.434 9.85218 68.0202 10.5679 69.1346 10.2747C70.8307 9.82768 71.2774 7.29677 71.2774 7.29677C71.2774 7.29677 70.3191 8.44742 69.5235 8.51085Z" fill="#F7EB1E"/>
<path fill-rule="evenodd" clip-rule="evenodd" d="M71.9595 3.30664C72.4995 5.20497 72.1227 8.57848 70.9199 10.0209C72.4039 9.87636 73.7842 9.85145 75.0883 10.0584L75.1629 7.40311C74.669 8.60896 71.939 10.1434 74.1198 3.93159C73.5842 3.75265 72.9633 3.5317 71.9595 3.30664Z" fill="#F7EB1E"/>
<path fill-rule="evenodd" clip-rule="evenodd" d="M79.4504 11.1428C79.5284 11.1428 79.558 11.1385 79.5814 11.121C79.6048 11.1037 79.6188 11.0745 79.6188 11.0438C79.6188 11.0014 79.5969 10.9694 79.5566 10.956C79.5347 10.9488 79.502 10.946 79.4348 10.946H79.3675V11.1428H79.4504ZM79.4551 10.8832C79.5209 10.8832 79.5519 10.8863 79.5893 10.8978C79.6532 10.9182 79.6971 10.9766 79.6971 11.0421C79.6971 11.1107 79.6501 11.1677 79.5752 11.1896L79.7016 11.4667H79.6143L79.4972 11.2042L79.491 11.2027H79.4365H79.3771L79.3675 11.2042V11.4667H79.2881V10.8832H79.4551ZM79.0275 11.1735C79.0275 11.4231 79.2289 11.6257 79.4803 11.6257C79.7297 11.6257 79.9327 11.4231 79.9327 11.1721C79.9327 10.9196 79.736 10.7228 79.4846 10.7228C79.2211 10.7228 79.0275 10.9138 79.0275 11.1735ZM80.0013 11.1749C80.0013 11.4653 79.775 11.6885 79.4803 11.6885C79.1836 11.6885 78.959 11.4667 78.959 11.1749C78.959 10.8774 79.1805 10.6602 79.4832 10.6602C79.775 10.6602 80.0013 10.8848 80.0013 11.1749Z" fill="#F7EB1E"/>
</g>
<defs>
<clipPath id="clip0_373_3335">
<rect width="82.8368" height="23.6677" fill="white" transform="translate(0.916016 0.654297)"/>
</clipPath>
</defs>
</svg>
