<svg width="40" height="41" viewBox="0 0 40 41" fill="none" xmlns="http://www.w3.org/2000/svg">
<path fill-rule="evenodd" clip-rule="evenodd" d="M21.9022 6.89967C21.8825 6.83557 21.8825 6.83557 21.8825 6.78133C21.8642 6.36096 22.0135 5.95053 22.2977 5.64019C22.5818 5.32986 22.9775 5.145 23.3979 5.12623C23.8178 5.10971 24.2272 5.25964 24.5372 5.54342C24.8471 5.8272 25.0325 6.22189 25.053 6.64162C25.0722 7.06086 24.9242 7.47058 24.6417 7.78088C24.3591 8.09118 23.965 8.27669 23.5458 8.29672C23.5014 8.30329 23.4439 8.29672 23.3798 8.29672C23.3535 8.30329 23.314 8.30329 23.2877 8.33288C23.1957 8.47094 23.5178 8.45286 23.2795 9.05605C23.2795 9.05605 23.2795 9.11851 23.2598 9.18261C23.2401 9.41271 23.1283 10.1063 23.102 10.486C23.1497 10.5517 23.1678 10.5682 23.1497 10.6996C23.1136 10.9943 23.0642 11.2871 23.0018 11.5773C22.936 11.8074 22.844 11.8633 22.7602 11.9093C22.6402 12.3991 22.604 12.8051 22.2983 13.3968C22.2621 13.8504 22.2243 13.972 22.1241 14.1923C22.0961 14.8497 22.1405 14.9483 21.6622 16.0019C21.5307 16.4949 21.6343 16.8352 21.7444 17.3512C21.8562 17.8788 22.198 18.1089 22.2342 18.6546C22.3164 19.9218 22.2621 20.7995 21.9663 21.7889L22.1882 22.3609C22.484 22.499 23.2039 22.8967 22.7799 23.4703C23.3436 23.7826 24.2016 24.1179 24.8837 24.754C25.1729 24.9956 25.4589 25.2717 25.7268 25.5758C26.2462 25.6694 26.1805 25.7072 26.5585 25.9554C27.6679 26.6753 29.4331 28.0987 30.4587 29.0881C30.6428 29.1982 30.7003 29.2722 30.8466 29.356C30.863 29.3938 30.8745 29.4119 30.863 29.4218C30.8203 29.5401 30.8203 29.5401 30.7644 29.6519C30.8285 29.7176 30.9206 29.7718 30.9847 29.8277C31.0504 29.8359 31.0504 29.8179 31.1425 29.7998C31.2723 29.9198 31.4383 30.0217 31.4942 30.0217C31.6684 29.9855 31.6322 30.0134 31.7982 29.8573C31.8459 29.7998 31.9363 29.8573 31.9363 29.8573C32.002 29.7916 32.122 29.6617 32.288 29.568C32.4179 29.4941 32.6661 29.4941 32.6661 29.4941C32.7515 29.5039 32.7318 29.5779 32.7137 29.6141C32.62 29.6519 32.4179 29.7077 32.3078 29.7916C32.0579 30.0217 31.8541 30.3717 31.8541 30.3717C32.3456 30.3175 32.6496 30.4457 33.0359 30.4096C33.2594 30.4013 33.4254 30.4194 33.6555 30.2616C33.6555 30.2616 33.8856 30.1038 34.091 30.0315C34.285 29.9493 34.4691 30.0036 34.6334 30.1334C34.7468 30.2715 34.829 30.2715 34.6334 30.4556C34.5611 30.5295 34.4691 30.6134 34.3376 30.735C34.119 30.9371 33.8231 31.2133 33.5158 31.445C33.2449 31.6457 32.9547 31.8192 32.6496 31.9627C32.0941 32.3408 32.2223 32.2487 31.79 32.6103C31.7407 32.6465 31.5862 32.7385 31.5221 32.7845C31.3463 32.8864 31.3002 32.7944 31.1983 32.5906C31.1983 32.5906 31.1523 32.5166 31.0668 32.3605C30.9847 32.1846 30.9189 31.9825 30.9485 31.9825C30.8466 31.971 30.4045 31.4171 30.4045 31.3086C30.3009 31.2872 29.9048 30.8813 29.895 30.7991L29.5432 30.5032C29.1274 30.5756 29.0337 30.3175 27.9638 29.5039C27.8323 29.4941 27.64 29.4218 27.3721 29.218C26.8823 28.8021 25.717 27.8784 25.5247 27.7667C25.311 27.6565 25.0628 27.5464 24.8952 27.4149C24.6552 27.3788 24.5369 27.3328 24.4054 27.3048C24.2739 27.2687 24.1753 27.2111 23.8696 27.175C23.3716 27.101 22.8538 26.8791 22.3723 26.6211C22.1422 26.5011 21.9384 26.4452 21.7444 26.3433C21.3006 26.1395 20.9128 25.9554 20.6169 25.8831C20.2896 25.8044 19.9752 25.6794 19.6834 25.5117C19.5831 25.4558 19.5272 25.413 19.4631 25.3917C19.3152 25.3555 19.2116 25.4015 19.1475 25.4278C18.7695 25.6053 18.4277 25.7615 18.1022 25.9373C17.8064 26.0853 17.5303 26.2431 17.2344 26.4074C16.9471 26.5574 16.6544 26.6966 16.3567 26.8249C16.3567 26.8249 15.4791 27.2407 14.9893 27.3969C14.5619 27.7206 13.6958 28.2943 13.1698 28.572C12.9101 28.692 12.4023 28.9862 12.1705 29.0519C12.039 29.1522 11.5607 29.476 11.1909 29.7439C10.8951 29.9477 10.6814 30.1236 10.6814 30.1236C10.5072 30.2616 10.5154 30.3372 10.2212 30.1975C10.1472 30.2462 10.0759 30.2989 10.0076 30.3553C9.77745 30.5115 9.76759 30.4753 9.67555 30.4654C9.50954 30.5969 9.48982 30.5312 9.35176 30.6791C9.2515 30.8172 9.35176 30.7794 9.15782 30.8533C9.1118 30.8632 9.09207 30.9191 9.06413 30.9454C8.90963 31.0653 8.89977 31.4269 8.52997 31.445C8.30808 31.5929 8.3541 31.7787 8.20618 31.7589C8.20618 31.9266 7.91033 32.137 7.85445 32.137C7.37452 32.2947 7.3548 31.943 6.79269 32.1945C6.71873 32.2208 6.60697 32.3128 6.46891 32.3326C6.21908 32.3687 5.92324 32.3227 5.73915 32.1649C5.53216 31.9717 5.35195 31.7517 5.20334 31.5108C5.11952 31.2971 5.1754 31.1689 5.47125 30.9651C5.59123 30.8911 5.60931 30.8352 5.81311 30.827C5.91173 30.7876 5.88708 30.8435 6.05965 30.7876C6.16484 30.7613 6.16484 30.7794 6.37687 30.7794C6.42289 30.7514 6.48699 30.7432 6.58067 30.7054C6.74503 30.6495 6.90281 30.6035 6.90281 30.6035C6.90281 30.6035 6.94883 30.5657 7.10662 30.5871C7.23482 30.5295 7.38439 30.4556 7.45835 30.4276C7.43862 30.2238 7.46656 30.2238 7.55696 30.1416C7.68845 30.0397 7.70488 30.0595 7.80021 30.1252C7.83637 30.1137 7.86431 30.1038 7.84459 30.0677C7.82815 29.9477 7.74433 29.8918 7.77063 29.6617C7.73447 29.568 7.67037 29.4497 7.68845 29.3757C7.70488 29.3018 7.73447 29.2623 7.78049 29.2459C7.82815 29.2262 7.85445 29.2558 7.87417 29.282C7.92019 29.3379 7.95635 29.5039 7.95635 29.5039C7.96622 29.6979 8.0221 29.9313 8.20618 29.7998C8.3163 29.6979 8.34424 29.402 8.55791 29.4661L8.71569 29.6058C8.85375 29.4859 8.85375 29.4859 8.94579 29.43C8.94579 29.43 8.81431 29.31 8.92607 29.2081C9.00003 29.144 9.10358 29.098 9.26794 28.9205C9.72157 28.4405 9.96153 28.2302 10.4415 27.8406C11.2938 27.1955 12.2342 26.6758 13.2339 26.2973C13.4739 26.0113 13.6941 25.8272 14.1954 25.7976C14.815 24.8016 15.9787 23.9305 16.2466 23.7925C16.4669 23.4144 16.5589 23.4506 16.8465 23.3865C17.0684 23.2106 17.1342 23.2106 17.2245 23.0348C17.3281 22.6567 17.0405 21.6213 17.854 21.5933C18.0381 21.3534 17.9822 21.4093 18.1762 21.1857C18.0795 20.9204 18.0144 20.6445 17.9822 20.3639C17.974 20.3376 17.6601 20.1059 17.7686 19.8183C17.5963 19.5984 17.4486 19.3603 17.3281 19.1082C17.2927 19.1072 17.2578 19.1006 17.2245 19.0885C17.1884 19.0803 17.1342 19.0803 17.0766 19.0803C16.9484 19.4024 16.8087 19.4222 16.5786 19.4961C16.1513 20.3376 16.0034 20.6976 14.8594 21.3731C14.3992 21.8629 14.2316 22.425 14.2316 22.4151C14.1618 22.5829 14.1548 22.7702 14.2119 22.9427C14.1379 23.1186 14.1675 23.1465 14.1675 23.1465C14.1839 23.2205 14.2595 23.3208 14.3417 23.3306C14.4715 23.3684 14.6195 23.3684 14.6014 23.5246C14.5833 23.7103 14.3335 23.6725 14.2119 23.6445C13.7599 23.5624 13.9078 23.2665 13.6119 23.3586C13.3802 23.4983 13.2898 23.9305 12.9282 23.8681C12.8822 23.8303 12.9003 23.7464 12.9381 23.6725C12.9841 23.5739 13.0761 23.4785 13.0301 23.4424C12.7901 23.5081 12.3184 23.6445 12.3184 23.6445C12.0966 23.7103 11.8566 23.5804 12.0768 23.4407C12.1804 23.4046 12.3283 23.3586 12.5124 23.2468C12.5124 23.2468 12.6143 23.1285 12.4187 23.1827C12.1973 23.2492 11.9655 23.2742 11.735 23.2567C11.735 23.2567 11.3126 23.1926 11.255 23.1646C11.209 23.1285 11.1548 22.9888 11.283 23.0003C11.5945 22.9955 11.9046 22.958 12.2083 22.8885C12.3645 22.831 12.6685 22.6584 12.8362 22.5828C12.8362 22.5828 13.0219 22.3247 13.132 22.2705C13.3079 22.0831 13.4443 21.9747 13.5922 21.7791C13.7401 21.4832 13.9078 21.023 14.414 20.29C14.6706 19.9073 14.9652 19.5516 15.2933 19.2282C15.2933 19.2282 15.3952 18.6727 15.8571 18.2864C15.9606 18.0563 16.1151 17.7769 16.2828 17.5271C16.3462 17.4385 16.4044 17.3463 16.457 17.251C16.6049 17.0373 16.7627 16.6314 17.3084 16.5771C17.3084 16.5771 17.55 16.4095 17.6322 16.2895C17.7702 16.1695 17.7538 15.9838 17.8623 15.8638C17.688 15.6896 17.2623 15.3559 17.2344 14.922C17.2164 14.7119 17.2463 14.5004 17.3217 14.3034C17.3972 14.1064 17.5162 13.9291 17.67 13.7847C17.9921 13.4806 18.3241 13.3327 18.7317 13.3606C19.2396 13.451 19.3333 13.6187 19.4796 13.7847C19.6275 13.9507 19.6932 13.8504 19.7475 14.0246C20.1731 14.1446 20.1551 14.0986 20.137 14.4125C20.2109 14.5062 20.3112 14.59 20.3013 14.7642C20.441 14.4766 20.4789 14.4224 20.8667 14.1084C20.9686 13.8504 21.0311 13.5907 21.1133 13.3228C21.1987 13.0828 21.3006 12.833 21.3664 12.6489C21.3006 12.1131 21.465 12.0293 21.6885 11.5576C21.6524 11.4935 21.6622 11.4754 21.6787 11.3735C21.7724 11.0579 21.9022 10.6618 21.9844 10.3939C21.9844 10.3939 22.0123 10.2904 22.1241 10.2904C22.2227 9.95838 22.3821 9.33875 22.4183 9.20069C22.5202 8.85882 22.4659 8.72898 22.4018 8.52682C22.3821 8.46108 22.392 8.3789 22.3525 8.30329C22.2392 8.08305 22.135 7.85824 22.0403 7.62942C21.9942 7.50944 21.9088 7.04759 21.9088 7.04759C21.9022 6.94569 21.9022 6.89967 21.9022 6.89967Z" fill="white"/>
</svg>
