<svg width="75" height="33" viewBox="0 0 75 33" fill="none" xmlns="http://www.w3.org/2000/svg">
<g clip-path="url(#clip0_373_3308)">
<path d="M0.517578 16.4894V32.2678H74.6721V0.710938H0.517578V16.4894ZM10.1577 10.145C10.1577 12.4768 10.1824 14.3883 10.2236 14.3883C10.2648 14.3883 11.7232 12.4768 13.4864 10.145L16.6915 5.90176H19.2375C20.6299 5.90176 21.7752 5.91824 21.7752 5.94295C21.7752 5.96767 20.424 7.7721 18.7761 9.95554L15.7687 13.9269L15.9005 14.1741C15.9747 14.3142 17.5319 17.2556 19.3611 20.7162C21.1902 24.1767 22.6816 27.0193 22.6816 27.0358C22.6816 27.0523 21.561 27.0688 20.1933 27.0605L17.7132 27.0358L15.2331 22.2817C13.8654 19.6615 12.7284 17.5275 12.7036 17.544C12.6789 17.5605 12.0857 18.2609 11.4101 19.126L10.1659 20.6915L10.1577 23.8801V27.077H5.7084V5.90176H10.1577V10.145ZM30.921 16.4894V27.077H26.4717V5.90176H30.921V16.4894ZM49.6244 7.79682V9.69188H44.1864V27.077H39.7371V9.69188H34.3815V5.90176H49.6244V7.79682ZM57.699 9.98026V14.0588H65.0321V5.90176H69.4813V27.077H64.9497V18.1785H57.699V27.077H53.2497V5.90176H57.699V9.98026Z" fill="white"/>
</g>
<defs>
<clipPath id="clip0_373_3308">
<rect width="74.1546" height="31.5569" fill="white" transform="translate(0.517578 0.710938)"/>
</clipPath>
</defs>
</svg>
