<svg width="327" height="174" viewBox="0 0 327 174" fill="none" xmlns="http://www.w3.org/2000/svg">
<path d="M257.64 29.8C242.12 29.8 231.39 35.957 224.13 44.544C222.9 41.974 221.96 40.844 220.65 39.364C214.71 32.644 205.14 29.504 192.32 29.504C179.78 29.504 169.34 33.421 162.09 39.584C158.32 33.464 149.34 29.401 138.51 29.401C124.36 29.401 108.96 31.411 99.8045 46.145C99.5925 40.835 99.1045 38.035 96.1215 34.871C92.4985 31.041 86.6335 30.031 80.9195 30.031C70.5045 30.031 62.6725 34.578 57.0355 43.845C48.8595 56.905 29.0295 99.895 29.4825 120.711C29.7625 134.161 38.7895 143.851 54.9355 144.231C67.5555 144.531 77.4475 141.151 83.7435 134.811C89.3895 140.931 98.0095 144.541 108.32 144.541C119.8 144.541 131.36 141.091 138.19 133.561C143.94 140.611 152.98 144.721 164.61 144.671C179.83 144.571 193.18 137.391 201.91 126.331C206.69 139.361 218.83 144.541 232.1 144.541C261.16 144.541 273.92 124.561 284.56 92.965C286.95 85.835 290.15 73.965 290.68 63.985C291.56 47.375 284.53 29.8 257.64 29.8ZM296.96 75.244C295.61 86.024 288.32 106.01 284.45 113.99C274.05 135.41 260.16 151.87 233.42 151.87C219.13 151.87 207.37 147.3 200.49 138.55C190.43 147.37 177.97 151.99 164.55 151.99C154.21 151.99 145.08 149 138.12 143.48C130.42 148.9 120.06 151.92 108.55 151.92C98.9535 151.92 90.3155 149.29 83.5495 144.42C76.0715 149.37 66.2695 151.84 54.7595 151.57C35.6095 151.12 22.3895 138.97 22.0095 121.34C21.5045 97.924 41.2345 55.044 50.5365 40.194C57.4885 28.764 68.1145 22.622 81.1215 22.622C95.2455 22.622 100.37 26.659 102.88 31.79C113.78 22.527 128.23 22 138.51 22C149.87 22 156.99 25.01 163.05 29.84C171.43 24.82 181.02 22.216 192.46 22.216C207.08 22.216 217.93 25.614 225.51 33.101C234.34 25.745 245.41 22.397 257.79 22.397C274.17 22.397 284.94 28.307 291.27 37.104C300.18 49.524 298.6 62.034 296.96 75.244ZM138.52 31.482C124.4 31.482 110.17 33.388 101.57 47.236L98.0225 52.956L97.7375 46.236C97.5275 41.026 97.0425 38.866 94.6235 36.296C91.9535 33.476 87.4775 32.106 80.9235 32.106C71.2965 32.106 64.0635 36.296 58.7975 44.936C50.6895 57.876 31.1155 100.432 31.5515 120.662C31.8315 133.782 40.5935 141.822 54.9895 142.162C66.8535 142.432 76.2855 139.392 82.2695 133.352L83.8015 131.802L85.2685 133.402C90.6535 139.252 98.8385 142.462 108.319 142.462C120.389 142.462 130.719 138.702 136.649 132.162L138.269 130.372L139.799 132.252C145.339 139.072 153.929 142.702 164.609 142.602C178.529 142.502 191.529 136.132 200.279 125.042L202.569 122.142L203.859 125.622C209.229 140.272 223.859 142.462 232.099 142.462C260.079 142.462 272.159 123.272 282.589 92.296C285.179 84.616 288.109 73.106 288.609 63.866C288.979 56.906 288.039 47.146 281.449 40.206C276.209 34.673 268.198 31.87 257.648 31.87C244.308 31.87 233.559 36.588 225.709 45.896L223.629 48.346L222.249 45.446C221.129 43.096 220.319 42.126 219.099 40.746C213.729 34.656 204.709 31.576 192.319 31.576C180.969 31.576 170.699 34.983 163.429 41.166L161.599 42.726L160.329 40.676C156.889 35.089 148.329 31.483 138.519 31.483L138.52 31.482ZM139 38.242C146.55 38.242 155.25 41.466 155.25 48.596C155.25 58.476 146.88 62.246 138.58 62.726C135.03 62.926 129.58 63.126 126.32 62.896C126.32 62.896 123.55 67.116 120.61 74.606C135.99 72.446 142.51 75.936 139.91 84.826C136.4 96.836 125.99 97.626 113.25 95.346C112.25 98.046 110.37 103.672 108.85 109.652C113.78 108.422 117.48 107.552 123.82 107.712C131.04 107.892 135.66 110.892 135.66 116.862C135.66 131.342 119.66 135.592 108.56 135.592C96.3595 135.592 85.6555 128.652 85.6555 115.322C85.6555 99.686 94.1255 75.996 102.07 60.216C111.84 40.826 121.82 38.242 139 38.242ZM192.75 38.646C207.25 38.646 218.68 43.856 217 57.446C215.78 67.416 210.79 73.266 201.73 73.976C199.19 74.176 188.82 73.876 192.26 64.096C193.46 60.666 193.96 57.976 188.86 57.976C184.69 57.976 181.98 60.606 179.95 63.456C175.5 69.706 165.84 94.786 164.34 105.072C163.32 112.132 166.36 113.562 169.69 113.562C175.03 113.562 181.02 107.912 183.06 98.596C183.06 98.596 172.89 98.346 175.7 89.326C178.41 80.576 183.59 78.686 192.15 78.336C209.03 77.646 207.36 90.106 206.01 96.746C201.63 118.322 186.27 135.662 164.54 135.662C149.67 135.662 140.44 127.422 140.44 112.262C140.44 101.462 145.8 84.496 150.05 74.576C159.09 53.446 168.58 38.646 192.75 38.646ZM258.75 38.776C287.49 39.116 282.36 64.686 280.12 75.806C277.57 88.526 271.819 103.572 265.579 114.792C255.399 133.092 243.04 135.652 232.25 135.522C221.47 135.392 209.29 131.412 209.21 114.762C209.11 102.812 214.29 85.936 218.68 74.886C226.3 54.826 234.1 38.486 258.75 38.776ZM81.0895 39.186C88.3035 39.186 90.0975 42.886 89.9895 47.326C89.7095 59.166 70.5615 95.166 64.2825 109.232C79.3205 106.622 83.1025 112.062 82.6225 117.082C81.2125 132.162 67.3825 135.522 55.3755 135.252C46.6685 135.042 38.8405 131.052 38.6215 120.952C38.2415 103.262 56.2795 62.356 64.7745 48.806C68.6905 42.356 73.4685 39.186 81.0895 39.186ZM255.75 58.396C253.28 58.396 251.12 58.836 249.19 61.816C244.84 67.466 232.13 102.182 232.36 109.112C232.46 111.592 233.81 113.772 236.88 113.772C240.39 113.772 242.34 111.352 244.08 108.412C248.07 101.642 259.32 70.956 259.63 63.276C259.73 61.046 259.35 58.396 255.75 58.396ZM295.51 28.792V26.756H296.89C297.91 26.756 298.44 27.11 298.44 27.766C298.44 28.291 298.11 28.791 297.07 28.791L295.51 28.792ZM300.49 33.042L299.62 31.542C298.87 30.222 298.66 30.025 298.03 29.792V29.762C299.29 29.615 300.04 28.796 300.04 27.674C300.04 26.494 299.29 25.596 297.69 25.596H293.98V33.048H295.51V29.995H295.79C296.44 29.995 296.71 30.065 297.01 30.365C297.31 30.668 297.76 31.297 298.03 31.832L298.63 33.048H300.49V33.042ZM296.82 23.504C300.02 23.504 302.63 26.091 302.63 29.292C302.63 32.474 300.02 35.079 296.82 35.079C293.63 35.079 291.06 32.474 291.06 29.292C291.06 26.092 293.63 23.504 296.82 23.504ZM296.82 22.081C295.874 22.0806 294.937 22.267 294.063 22.6294C293.189 22.9918 292.395 23.5232 291.727 24.1931C291.059 24.8629 290.53 25.6581 290.17 26.5329C289.81 27.4077 289.626 28.345 289.63 29.291C289.628 30.2355 289.812 31.1711 290.173 32.0441C290.534 32.917 291.063 33.7101 291.731 34.3777C292.399 35.0454 293.193 35.5745 294.066 35.9345C294.939 36.2946 295.875 36.4786 296.82 36.476C300.82 36.476 304.03 33.276 304.03 29.291C304.03 25.297 300.81 22.081 296.82 22.081Z" fill="white"/>
</svg>
