<svg width="152" height="17" viewBox="0 0 152 17" fill="none" xmlns="http://www.w3.org/2000/svg">
<g clip-path="url(#clip0_373_3357)">
<path fill-rule="evenodd" clip-rule="evenodd" d="M68.26 0.781281L72.076 9.98628L75.892 0.781281H78.6171L72.369 15.8783L72.076 16.1723L71.782 15.8783L65.534 0.781281H68.26ZM54.548 0.781281C56.016 0.781281 57.408 1.54828 58.175 2.66828L56.708 4.13628H56.246C55.942 3.48628 55.273 3.08828 54.548 3.08828C53.685 3.08828 52.876 3.79828 52.828 4.70228C52.793 5.38228 53.105 5.80728 53.668 6.17028C54.274 6.56128 54.522 6.72428 55.345 7.17628C56.242 7.66928 58.511 8.63628 58.511 11.1813C58.511 13.6903 56.414 16.0243 53.709 16.0243C53.362 16.0243 52.733 15.9853 52.263 15.8773C50.938 15.5563 50.134 15.0553 49.265 14.0323L51.152 12.1033L51.802 12.6483C52.095 12.8783 52.739 13.3413 53.352 13.4243C54.598 13.5933 55.434 12.7693 55.596 11.9563C55.725 11.3143 55.562 10.3563 54.527 9.86028C54.527 9.86028 52.661 8.82328 51.843 8.35028C51.01 7.86828 50.124 6.55228 50.124 4.97528C50.124 3.80128 50.662 2.66428 51.529 1.87228C52.199 1.25828 53.118 0.781281 54.548 0.781281ZM139.293 0.488281L149.063 10.2583V1.07528L149.357 0.781281H151.286L151.58 1.07528V15.8773H151.118L141.516 6.27528V15.5843L141.222 15.8773H139.293L139 15.5843V0.781281L139.293 0.488281ZM110.486 0.781281V3.00428L110.192 3.29728H107.97V15.8773H105.454V3.29728H102.938V1.07528L103.232 0.781281H110.486ZM119.711 0.781281V3.00428L119.417 3.29728H117.195V15.8773H114.679V3.29728H112.163V1.07528L112.457 0.781281H119.711ZM3.13905 0.781281V13.3613H8.17105V15.8773H0.623047V1.07528L0.916047 0.781281H3.13905ZM17.396 0.781281C19.3979 0.781281 21.3178 1.57651 22.7333 2.99204C24.1488 4.40756 24.944 6.32743 24.944 8.32928C24.944 10.3311 24.1488 12.251 22.7333 13.6665C21.3178 15.082 19.3979 15.8773 17.396 15.8773C15.3942 15.8773 13.4743 15.082 12.0588 13.6665C10.6433 12.251 9.84805 10.3311 9.84805 8.32928C9.84805 6.32743 10.6433 4.40756 12.0588 2.99204C13.4743 1.57651 15.3942 0.781281 17.396 0.781281ZM128.936 0.781281C130.938 0.781281 132.858 1.57651 134.273 2.99204C135.689 4.40756 136.484 6.32743 136.484 8.32928C136.484 10.3311 135.689 12.251 134.273 13.6665C132.858 15.082 130.938 15.8773 128.936 15.8773C126.934 15.8773 125.014 15.082 123.599 13.6665C122.183 12.251 121.388 10.3311 121.388 8.32928C121.388 6.32743 122.183 4.40756 123.599 2.99204C125.014 1.57651 126.934 0.781281 128.936 0.781281ZM30.521 0.781281L30.814 1.07528V10.8453C30.814 11.5126 31.0791 12.1525 31.551 12.6244C32.0228 13.0962 32.6628 13.3613 33.33 13.3613C33.9973 13.3613 34.6373 13.0962 35.1091 12.6244C35.581 12.1525 35.846 11.5126 35.846 10.8453V1.07528L36.14 0.781281H38.069L38.362 1.07528V10.8453C38.362 12.1799 37.8319 13.4598 36.8882 14.4034C35.9445 15.3471 34.6646 15.8773 33.33 15.8773C31.9955 15.8773 30.7156 15.3471 29.7719 14.4034C28.8282 13.4598 28.298 12.1799 28.298 10.8453V1.07528L28.592 0.781281H30.521ZM45.91 0.781281V15.5843L45.616 15.8773H43.394V1.07528L43.687 0.781281H45.91ZM83.356 0.781281L83.649 1.07528V10.8453C83.649 11.5126 83.9141 12.1525 84.386 12.6244C84.8578 13.0962 85.4978 13.3613 86.165 13.3613C86.8323 13.3613 87.4723 13.0962 87.9441 12.6244C88.416 12.1525 88.681 11.5126 88.681 10.8453V1.07528L88.975 0.781281H90.903L91.197 1.07528V10.8453C91.197 12.1799 90.6669 13.4598 89.7232 14.4034C88.7795 15.3471 87.4996 15.8773 86.165 15.8773C84.8305 15.8773 83.5506 15.3471 82.6069 14.4034C81.6632 13.4598 81.133 12.1799 81.133 10.8453V1.07528L81.427 0.781281H83.356ZM98.745 0.781281V15.5843L98.451 15.8773H96.229V1.07528L96.522 0.781281H98.745ZM17.395 3.29828C16.7342 3.29835 16.0798 3.42858 15.4692 3.68155C14.8587 3.93452 14.3039 4.30526 13.8367 4.77262C12.893 5.71649 12.3629 6.99658 12.363 8.33128C12.3632 9.66598 12.8935 10.946 13.8374 11.8896C14.7813 12.8333 16.0613 13.3634 17.396 13.3633C18.7307 13.3633 20.0108 12.8331 20.9546 11.8893C21.8983 10.9455 22.4285 9.66548 22.4285 8.33078C22.4285 6.99608 21.8983 5.71604 20.9546 4.77227C20.0108 3.82849 18.7307 3.29828 17.396 3.29828H17.395ZM128.936 3.29828C127.601 3.29828 126.321 3.82849 125.378 4.77227C124.434 5.71604 123.904 6.99608 123.904 8.33078C123.904 9.66548 124.434 10.9455 125.378 11.8893C126.321 12.8331 127.601 13.3633 128.936 13.3633C130.271 13.3633 131.551 12.8331 132.495 11.8893C133.438 10.9455 133.969 9.66548 133.969 8.33078C133.969 6.99608 133.438 5.71604 132.495 4.77227C131.551 3.82849 130.271 3.29828 128.936 3.29828Z" fill="white"/>
</g>
<defs>
<clipPath id="clip0_373_3357">
<rect width="151" height="16" fill="white" transform="translate(0.623047 0.488281)"/>
</clipPath>
</defs>
</svg>
