<svg width="2174" height="713" viewBox="0 0 2174 713" fill="none" xmlns="http://www.w3.org/2000/svg">
<path fill-rule="evenodd" clip-rule="evenodd" d="M647.734 178.113L776.265 139.852L784.098 272.351L878.765 139.359L971.278 227.437L841.97 363.788L1108.19 469.142V590.422L798.897 435.744L799.442 597.789L719.444 608.735L685.295 203.145L649.304 212.535L647.734 178.113Z" fill="white"/>
<path fill-rule="evenodd" clip-rule="evenodd" d="M1519.01 136.727H1590.31L1662.54 605.83L1557.27 589.76L1529.29 404.202L1489.71 506.585L1430.35 378.665H1429.72L1406.23 526.844L1307.42 509.659L1366.26 158.438H1466.09L1490.97 294.685L1519.01 136.727Z" fill="white"/>
<path fill-rule="evenodd" clip-rule="evenodd" d="M1838.04 184.961L1975.46 212.574L2021.66 431.724L2069.01 235.271L2173.58 258.409L2026.36 704.309L1953.25 682.455L1946.86 412.956L1910.08 620.862L1830.28 608.177L1866.08 230.705L1835.99 222.664L1838.04 184.961Z" fill="white"/>
<path fill-rule="evenodd" clip-rule="evenodd" d="M1867.32 379.417C1851.69 313.985 1782.03 281.275 1710.44 308.252C1641.05 334.814 1595.57 409.883 1611.17 475.329C1627.23 542.823 1696.35 575.507 1767.95 548.543C1837.88 521.994 1883.4 446.367 1867.32 379.417Z" fill="white"/>
<path fill-rule="evenodd" clip-rule="evenodd" d="M1815.31 391C1813.85 427.056 1782.49 454.228 1744.14 452.672C1706.39 451.141 1677.34 421.505 1678.81 385.462C1680.17 351.598 1711.53 324.414 1749.87 325.97C1787.62 327.5 1816.69 357.136 1815.31 391Z" fill="black"/>
<path fill-rule="evenodd" clip-rule="evenodd" d="M1766.52 327.578C1743.56 326.645 1724.29 342.442 1723.49 362.869C1722.66 383.284 1740.58 400.598 1763.51 401.519C1786.47 402.453 1805.74 386.656 1806.55 366.241C1807.39 345.814 1789.45 328.512 1766.52 327.578Z" fill="white"/>
<path fill-rule="evenodd" clip-rule="evenodd" d="M701.303 409.079C682.12 341.105 607.648 309.757 533.681 341.105C462.024 371.908 417.485 452.619 436.642 520.606C456.382 590.721 530.283 622.082 604.25 590.721C676.492 559.917 721.03 478.636 701.303 409.079Z" fill="white"/>
<path fill-rule="evenodd" clip-rule="evenodd" d="M651.239 422.087C651.239 458.168 621.007 486.598 582.642 486.598C544.849 486.598 514.629 458.168 514.629 422.087C514.629 388.197 544.848 359.754 583.226 359.754C621.007 359.767 651.239 388.197 651.239 422.087Z" fill="black"/>
<path fill-rule="evenodd" clip-rule="evenodd" d="M599.929 360.703C576.959 360.703 558.348 377.266 558.348 397.706C558.348 418.146 576.959 434.709 599.929 434.709C622.885 434.709 641.497 418.146 641.497 397.706C641.497 377.266 622.885 360.703 599.929 360.703Z" fill="white"/>
<path fill-rule="evenodd" clip-rule="evenodd" d="M435.149 249.746C422.607 220.824 400.973 198.14 372.621 182.213C352.064 168.53 328.459 161.915 306.242 159.36C243.235 148.31 164.677 158.712 82.1894 193.795C52.8129 206.285 25.2521 220.564 0 236.634L63.3054 343.608C79.5176 335.632 97.0657 327.254 106.534 322.26L281.444 712.832L366.655 685.595L314.063 483.578C414.708 421.427 465.589 319.965 435.149 249.746Z" fill="white"/>
<path fill-rule="evenodd" clip-rule="evenodd" d="M1238.08 326.891C1223.06 344.699 1205.84 360.924 1175.13 368.33C1164.89 370.794 1151.02 373.09 1142.25 371.533L1271.01 234.391C1234.61 189.619 1175.06 168.946 1107.4 185.248C1023.3 205.52 966.573 275.466 987.571 364.685C1004.47 436.473 1083.79 480.35 1175.85 458.171C1231.61 444.735 1270.39 423.205 1305.2 387.292L1238.08 326.891Z" fill="white"/>
<path fill-rule="evenodd" clip-rule="evenodd" d="M1187.95 0L1234.11 62.6829L1102.16 128.076L1093.04 114.264L1187.95 0Z" fill="white"/>
<path fill-rule="evenodd" clip-rule="evenodd" d="M1090.12 329.004C1085.42 320.478 1083.46 310.715 1084.49 301.035C1085.53 291.356 1089.52 282.229 1095.91 274.892C1102.31 267.554 1110.81 262.361 1120.26 260.016C1129.71 257.671 1139.65 258.287 1148.73 261.781L1090.12 329.004ZM1096.58 274.116C1089.91 281.444 1085.7 290.674 1084.54 300.515C1083.38 310.355 1085.33 320.312 1090.11 328.991L1148.71 261.768C1139.79 258.341 1130.04 257.687 1120.74 259.889C1111.44 262.092 1103.02 267.051 1096.58 274.116ZM1181.24 251.691C1174.09 245.186 1165.73 240.153 1156.64 236.878C1147.55 233.603 1137.9 232.151 1128.25 232.605C1118.6 233.058 1109.13 235.408 1100.39 239.521C1091.64 243.633 1083.79 249.428 1077.29 256.574C1070.78 263.72 1065.75 272.077 1062.48 281.168C1059.2 290.259 1057.75 299.906 1058.2 309.558C1058.66 319.211 1061.01 328.679 1065.12 337.423C1069.23 346.167 1075.03 354.016 1082.17 360.52C1084.68 362.79 1087.32 364.787 1090.02 366.655L1186.42 256.944C1184.79 255.1 1183.06 253.347 1181.24 251.691ZM1090.12 329.004C1085.42 320.478 1083.46 310.715 1084.49 301.035C1085.53 291.356 1089.52 282.229 1095.91 274.892C1102.31 267.554 1110.81 262.361 1120.26 260.016C1129.71 257.671 1139.65 258.287 1148.73 261.781L1090.12 329.004ZM368.874 316.566C361.391 275.166 307.501 251.989 253.625 280.873L267.152 328.29L288.475 398.379L298.202 430.349C338.564 404.695 379.25 373.892 368.874 316.566ZM315.257 379.793L296.853 319.263L291.38 300.081C302.806 298.058 313.74 299.082 322.728 303.427C327.734 305.84 336.424 311.481 338.331 322.078C342.649 345.877 334.44 362.816 315.257 379.793Z" fill="black"/>
</svg>
