<svg width="235" height="17" viewBox="0 0 235 17" fill="none" xmlns="http://www.w3.org/2000/svg">
<path d="M0.505859 0.571641C0.547429 0.569472 0.588999 0.565496 0.630568 0.565496C3.03185 0.565134 5.43313 0.562966 7.83441 0.566219C8.78726 0.567303 9.73143 0.64972 10.6503 0.924441C11.1397 1.07048 11.605 1.27001 12.0264 1.56244C12.744 2.05983 13.1987 2.73146 13.3711 3.5896C13.5396 4.42967 13.485 5.24516 13.0881 6.01908C12.7751 6.62888 12.2986 7.08579 11.7224 7.44437C11.0483 7.86332 10.3076 8.11021 9.53298 8.25263C9.1162 8.32926 8.69183 8.36397 8.27071 8.41746C8.19119 8.42759 8.11166 8.43735 7.99888 8.45144C8.06937 8.5494 8.11492 8.617 8.1648 8.68134C10.0141 11.0725 11.8649 13.4626 13.7109 15.8563C13.8038 15.977 13.9 16.0171 14.046 16.0131C14.3941 16.0037 14.7429 16.0099 15.1066 16.0099V16.474C15.0263 16.4787 14.9472 16.4874 14.868 16.4874C13.7174 16.4881 12.5668 16.4849 11.4163 16.4914C11.2489 16.4925 11.1437 16.4404 11.0403 16.3074C9.773 14.6768 8.49953 13.0509 7.22749 11.4239C6.47346 10.4594 5.71942 9.49502 4.96502 8.53097C4.9173 8.46988 4.86489 8.41313 4.7991 8.33541C4.73946 8.56784 4.73078 15.6191 4.78392 15.8968H6.58407V16.4881C6.47707 16.4881 6.37947 16.4881 6.28187 16.4881C4.4557 16.4881 2.62989 16.4878 0.803715 16.4888C0.704671 16.4888 0.605265 16.5001 0.505859 16.5062V16.0066H1.99225C2.04285 15.5855 2.02442 1.24543 1.9767 1.07156H0.505859V0.571641ZM4.76296 7.83694C4.81392 7.84489 4.85369 7.85682 4.89309 7.85609C5.60881 7.8438 6.32597 7.84814 7.04061 7.81055C7.57343 7.78271 8.09431 7.658 8.59062 7.45341C9.55793 7.05543 10.2187 6.37694 10.4909 5.35324C10.6514 4.74957 10.6734 4.1347 10.5556 3.52273C10.3282 2.34142 9.63854 1.55413 8.48977 1.18145C8.03539 1.03397 7.56367 0.975047 7.0876 0.971071C6.38779 0.964565 5.68761 0.969264 4.98779 0.970348C4.9155 0.970348 4.84284 0.978662 4.76296 0.983723V7.83694Z" fill="white"/>
<path d="M234.083 0.920536H232.568C232.53 0.956323 232.523 0.961745 232.518 0.96789C232.512 0.974035 232.507 0.980542 232.505 0.987771C232.5 1.00331 232.496 1.01994 232.493 1.03621C232.492 1.04416 232.492 1.05284 232.492 1.06115C232.491 1.08609 232.49 1.11103 232.49 1.13598C232.49 6.18073 232.488 11.2258 232.487 16.2706C232.487 16.2789 232.485 16.2872 232.483 16.2952C232.481 16.3035 232.479 16.3114 232.472 16.3422C232.417 16.349 232.355 16.3628 232.292 16.3642C232.142 16.3678 231.991 16.3523 231.842 16.3689C231.65 16.3902 231.545 16.31 231.443 16.1502C228.376 11.373 225.304 6.59932 222.233 1.82495C222.18 1.74181 222.125 1.65975 222.073 1.58131C222.051 1.58782 222.042 1.5889 222.035 1.59324C222.029 1.5965 222.02 1.603 222.02 1.60879C222.015 1.68289 222.006 1.75735 222.006 1.83182C222.005 6.46738 222.006 11.1026 222.006 15.7703C222.703 15.7945 223.382 15.7638 224.065 15.7877V16.3483H219.667V15.7873H221.278C221.336 15.5856 221.35 1.26213 221.296 0.938972H219.666V0.380854H219.922C221.348 0.380854 222.774 0.384107 224.199 0.376878C224.379 0.376155 224.481 0.429292 224.578 0.584003C226.891 4.26165 229.211 7.93605 231.529 11.6108C231.59 11.7077 231.653 11.8038 231.713 11.8964C231.741 11.8855 231.749 11.8834 231.756 11.8794C231.762 11.8758 231.772 11.87 231.773 11.8646C231.777 11.8234 231.782 11.7818 231.782 11.7406C231.782 8.1533 231.783 4.56565 231.783 0.951262C231.55 0.912946 231.327 0.935357 231.107 0.931742C230.882 0.927766 230.656 0.93102 230.431 0.93102H229.752V0.380854H230.032C231.291 0.380854 232.549 0.381216 233.808 0.380492C233.9 0.380492 233.992 0.374347 234.083 0.371094V0.920536Z" fill="white"/>
<path d="M28.7223 0.271484C28.808 0.539337 28.8864 0.810083 28.9797 1.07541C30.6689 5.88339 32.3602 10.691 34.0512 15.4986C34.0949 15.6237 34.1415 15.7477 34.1947 15.893H35.1342V16.3235C34.9556 16.3752 29.9633 16.3893 29.6596 16.3369V15.9006H31.5024C30.8171 13.9334 30.1454 12.0053 29.4706 10.0678H24.2093C23.5033 11.988 22.793 13.9194 22.0748 15.8728C22.3466 15.9234 22.5935 15.893 22.8382 15.8984C23.0967 15.9042 23.3551 15.8992 23.6136 15.8992H24.3803V16.3268C24.1887 16.3756 20.3766 16.3951 19.885 16.3485C19.8795 16.282 19.8719 16.2111 19.8687 16.1399C19.8658 16.0741 19.868 16.008 19.868 15.9118C20.1163 15.8876 20.356 15.9024 20.5938 15.8999C20.8346 15.8973 21.0757 15.8992 21.3309 15.8992C21.3688 15.8063 21.4042 15.7242 21.4353 15.6403C22.6987 12.2334 23.9617 8.82652 25.224 5.41962C25.845 3.74346 26.4656 2.06657 27.0855 0.390048C27.1 0.35137 27.109 0.310885 27.121 0.271484H28.7223ZM26.9767 2.85784C26.9594 2.85856 26.9417 2.85965 26.9243 2.86037C26.1258 5.05091 25.327 7.24109 24.5212 9.45115H29.3802C28.5734 7.23892 27.7752 5.04802 26.9767 2.85784Z" fill="white"/>
<path d="M145.636 0.271484C147.463 5.46227 149.289 10.6531 151.117 15.8435C151.122 15.8576 151.139 15.8677 151.174 15.9049H152.076C152.076 16.06 152.076 16.1901 152.076 16.3206C151.905 16.3759 146.944 16.3933 146.604 16.3373V15.9017H148.44C147.755 13.9342 147.084 12.0068 146.409 10.0689H141.147C140.441 11.9865 139.732 13.9172 139.006 15.8908C139.792 15.9107 140.544 15.8901 141.314 15.9035V16.3261C141.127 16.3774 137.109 16.385 136.846 16.3315V15.9104H138.31C138.47 15.4791 138.622 15.0753 138.771 14.6701C140.502 9.96553 142.233 5.26093 143.963 0.555243C143.996 0.46415 144.012 0.366191 144.035 0.271484C144.569 0.271484 145.103 0.271484 145.636 0.271484ZM141.458 9.45332H146.319C145.514 7.24688 144.717 5.06067 143.92 2.87411C143.899 2.87375 143.879 2.87338 143.858 2.87266C143.061 5.0585 142.263 7.24471 141.458 9.45332Z" fill="white"/>
<path d="M94.9244 15.7754H96.3671V16.3501H90.5285V15.7873C91.0527 15.766 91.5822 15.7909 92.1038 15.7732C92.1588 15.5654 92.1646 8.59683 92.1118 8.34019H85.6775C85.6215 8.5202 85.6034 15.4031 85.6613 15.7732H87.2839V16.3501H81.4121V15.7891H82.8172C82.8801 15.5917 82.901 1.33299 82.8436 0.9444H81.4136V0.396765H87.2796V0.92958H85.6482V7.81388C85.8275 7.86702 91.8219 7.88039 92.1291 7.82653V0.940785C91.6021 0.914759 91.0722 0.945484 90.5292 0.922711V0.419899C90.7111 0.3711 95.8664 0.350496 96.366 0.397849V0.929941H94.9244V15.7754Z" fill="white"/>
<path d="M180.358 0.969977H178.918V0.493914H179.19C181.616 0.493914 184.043 0.48307 186.469 0.498614C187.557 0.505481 188.63 0.643926 189.641 1.08276C190.437 1.42761 191.09 1.93837 191.465 2.74229C192.094 4.09132 192.028 6.12895 190.159 7.32074C189.424 7.78921 188.613 8.05634 187.762 8.20418C187.311 8.28226 186.855 8.326 186.375 8.3889C186.411 8.44493 186.442 8.50674 186.484 8.56024C187.649 10.06 188.814 11.5583 189.979 13.0574C190.654 13.9253 191.335 14.7885 191.999 15.6643C192.136 15.8454 192.279 15.9166 192.499 15.9025C192.764 15.8859 193.031 15.8985 193.32 15.8985V16.388C193.265 16.3927 193.21 16.4017 193.155 16.4021C191.971 16.4028 190.787 16.3996 189.603 16.4064C189.458 16.4071 189.378 16.3497 189.295 16.2438C187.85 14.3822 186.402 12.5227 184.955 10.6629C184.377 9.92047 183.799 9.178 183.221 8.43553C183.171 8.37263 183.119 8.31263 183.028 8.20274C183.007 8.32492 182.989 8.38384 182.988 8.4424C182.986 8.8505 182.987 9.25825 182.987 9.66635C182.987 11.6057 182.987 13.5453 182.987 15.485V15.8107H184.934V16.3247C184.744 16.3753 179.439 16.397 178.919 16.3482V15.9058C179.385 15.8877 179.864 15.9072 180.358 15.8939V0.969977ZM183.001 7.72089C183.078 7.72704 183.134 7.73571 183.191 7.73571C183.715 7.7368 184.24 7.74439 184.765 7.73427C185.451 7.72125 186.124 7.62112 186.767 7.37062C187.779 6.97661 188.466 6.28077 188.741 5.21659C188.917 4.53629 188.924 3.84877 188.745 3.16919C188.487 2.18453 187.876 1.50279 186.921 1.13806C186.475 0.967447 186.007 0.880332 185.531 0.871656C184.748 0.857197 183.965 0.864065 183.182 0.863342C183.126 0.863342 183.07 0.872379 183.001 0.878163V7.72089Z" fill="white"/>
<path d="M199.529 16.2978V15.8199H200.97V0.871102H199.536V0.396846C203.722 0.396846 207.904 0.396846 212.085 0.396484C212.142 0.567101 212.157 5.18097 212.099 5.48317H211.542C211.521 5.43111 211.494 5.37219 211.472 5.31183C211.14 4.38031 210.818 3.44481 210.47 2.51907C210.351 2.20205 210.181 1.90131 210.011 1.6067C209.72 1.10498 209.281 0.859173 208.691 0.861704C207.09 0.869294 205.489 0.863511 203.889 0.863873C203.841 0.863873 203.793 0.872909 203.732 0.879054V7.76082C203.825 7.76552 203.907 7.77311 203.988 7.77311C204.563 7.7742 205.138 7.76733 205.713 7.77528C206.46 7.78577 206.979 7.43694 207.321 6.79135C207.556 6.34637 207.702 5.86995 207.822 5.38485C207.89 5.11229 207.949 4.83793 208.014 4.55779H208.601V11.3745H208.011C207.964 11.1612 207.92 10.9516 207.87 10.7434C207.745 10.2254 207.603 9.71279 207.351 9.23854C207.124 8.81163 206.815 8.47438 206.329 8.34605C206.169 8.30412 206.003 8.26761 205.838 8.26544C205.18 8.25641 204.521 8.26147 203.863 8.26219C203.823 8.26219 203.784 8.27087 203.732 8.27665V15.692C203.793 15.6999 203.855 15.7147 203.918 15.7147C205.402 15.714 206.886 15.7155 208.37 15.7079C209.104 15.7039 209.686 15.4046 210.096 14.7821C210.376 14.3556 210.606 13.9027 210.777 13.4244C211.106 12.5009 211.413 11.5697 211.729 10.6414C211.764 10.5398 211.797 10.4379 211.833 10.3309H212.386C212.44 10.5095 212.46 15.8004 212.407 16.1799C212.347 16.1857 212.284 16.1966 212.22 16.1969C211.145 16.2042 210.069 16.2085 208.994 16.2161C207.402 16.2273 205.811 16.2396 204.219 16.2541C202.744 16.2671 201.269 16.283 199.794 16.2978C199.712 16.2985 199.631 16.2978 199.529 16.2978Z" fill="white"/>
<path d="M63.2101 1.26062H61.7461V0.744068H62.0252C64.3841 0.744068 66.7431 0.732862 69.1018 0.748767C70.3022 0.757081 71.4738 0.949024 72.569 1.47642C73.3357 1.84548 73.9755 2.3595 74.4238 3.0951C75.2255 4.4116 75.2049 6.76842 73.2027 7.95442C72.5643 8.33288 71.8736 8.56495 71.1499 8.70448C70.4121 8.84726 69.6664 8.90871 68.9145 8.90582C67.9895 8.90257 67.0641 8.9051 66.1391 8.9051C66.0487 8.9051 65.9584 8.9051 65.8506 8.9051V16.1791H68.0802V16.6533C67.9056 16.7079 62.2001 16.7289 61.7504 16.675V16.1917H63.1305C63.1678 16.1577 63.1743 16.1523 63.1801 16.1465C63.1862 16.1408 63.1963 16.1346 63.1967 16.1281C63.2021 16.0453 63.2097 15.9625 63.2097 15.8798C63.2104 11.0201 63.2101 6.16042 63.2101 1.26062ZM65.8644 1.27182C65.7917 1.6004 65.6988 8.21757 65.7628 8.45868C65.8 8.46121 65.8405 8.46591 65.881 8.46627C66.6726 8.46663 67.465 8.48434 68.2555 8.45976C68.7446 8.44458 69.2377 8.39759 69.7177 8.30649C70.7967 8.1019 71.5226 7.48414 71.776 6.39031C71.9968 5.43638 72.0087 4.47666 71.742 3.52815C71.5005 2.66892 70.9948 2.01285 70.1743 1.62679C69.6469 1.37846 69.0833 1.27074 68.5035 1.26495C67.679 1.25664 66.8537 1.26242 66.0289 1.26315C65.9725 1.26315 65.9161 1.26893 65.8644 1.27182Z" fill="white"/>
<path d="M118.975 16.3872V15.9032H120.391C120.452 15.6925 120.478 1.53961 120.422 0.978238H118.978V0.536877C119.164 0.483739 125.337 0.474341 125.602 0.528562V0.960164H123.211C123.15 1.17127 123.122 15.0758 123.177 15.7948C123.236 15.8013 123.299 15.815 123.361 15.815C124.587 15.8161 125.812 15.8107 127.038 15.8175C127.792 15.8215 128.351 15.5045 128.717 14.8488C128.802 14.6966 128.888 14.5437 128.962 14.3857C129.329 13.5995 129.585 12.7732 129.828 11.9436C129.999 11.3616 130.159 10.776 130.323 10.1922C130.343 10.1218 130.367 10.0527 130.389 9.98295H130.966V16.3872H118.975Z" fill="white"/>
<path d="M45.9977 16.1101C46.0978 16.1101 46.1795 16.1101 46.2616 16.1101C47.4703 16.1101 48.6791 16.1126 49.8875 16.1075C50.0946 16.1068 50.3047 16.0884 50.5085 16.0529C50.951 15.9752 51.2821 15.7215 51.538 15.3611C51.82 14.9645 52.0148 14.5235 52.1872 14.0728C52.5892 13.0231 52.8881 11.9412 53.1867 10.8596C53.2395 10.6677 53.2926 10.4761 53.3479 10.2769H53.9635C53.9635 12.4132 53.9635 14.546 53.9635 16.6852H41.7944C41.7883 16.6176 41.78 16.5619 41.7785 16.5059C41.7764 16.4076 41.7778 16.3096 41.7778 16.1795H43.2541V1.27366H41.797V0.796875H48.4109V1.25812H45.9977V16.1101Z" fill="white"/>
<path d="M159.835 0.862426H158.361V0.396484H164.206V0.861703H162.491C162.484 0.967254 162.475 1.0475 162.475 1.12811C162.474 4.87408 162.474 8.62005 162.475 12.366C162.475 12.9509 162.533 13.5282 162.736 14.0838C163.16 15.2437 164.004 15.8832 165.21 16.0636C166.036 16.1872 166.842 16.0903 167.61 15.7664C168.853 15.2423 169.54 14.28 169.748 12.9664C169.794 12.6722 169.805 12.37 169.805 12.0714C169.809 8.43353 169.807 4.79564 169.807 1.15775V0.868933H167.569V0.398653H171.958V0.858811H170.491V1.20474C170.491 4.90914 170.492 8.61354 170.49 12.3179C170.489 12.9823 170.37 13.6254 170.084 14.2301C169.585 15.2817 168.753 15.9587 167.671 16.3437C167.07 16.5577 166.448 16.6502 165.808 16.6564C164.879 16.665 163.961 16.5985 163.061 16.3531C162.528 16.2074 162.021 15.9996 161.56 15.6901C160.667 15.0905 160.153 14.2403 159.955 13.1996C159.88 12.8099 159.841 12.4072 159.84 12.0103C159.831 8.41437 159.835 4.81805 159.835 1.22173C159.835 1.1151 159.835 1.00846 159.835 0.862426Z" fill="white"/>
</svg>
