<svg width="114" height="35" viewBox="0 0 114 35" fill="none" xmlns="http://www.w3.org/2000/svg">
<g clip-path="url(#clip0_373_2937)">
<mask id="mask0_373_2937" style="mask-type:luminance" maskUnits="userSpaceOnUse" x="0" y="0" width="114" height="35">
<path d="M113.663 0.330078H0.0585938V34.3523H113.663V0.330078Z" fill="white"/>
</mask>
<g mask="url(#mask0_373_2937)">
<path d="M113.663 0.330078H0.0585938V34.3523H113.663V0.330078Z" fill="white"/>
<path d="M20.0744 8.1198C19.4669 7.08237 18.5793 6.42756 17.2263 6.42756C15.8733 6.42756 14.5282 7.40977 14.3152 8.75094C13.759 12.2222 22.2439 10.7706 21.1394 17.6894C20.4806 21.8194 17.4157 24.7424 13.1673 24.7424C10.2996 24.7424 8.46141 23.1014 7.4082 20.7228L10.4337 18.1786C10.7335 19.7643 11.9682 21.1883 13.7077 21.1883C15.4473 21.1883 16.607 19.7919 16.8634 18.2062C17.2027 16.0761 15.3132 15.4726 13.7866 14.8454C11.2818 13.7527 9.53829 12.4115 10.0471 9.21246C10.5954 5.79642 13.6012 3.03125 17.108 3.03125C18.958 3.03125 21.38 3.93457 22.4253 5.32701L20.0744 8.11585V8.1198Z" fill="#050505"/>
<path d="M27.1151 10.7715L25.9554 18.0453C25.7069 19.5759 25.6635 21.4101 27.6239 21.4101C29.5844 21.4101 30.1248 19.5759 30.3694 18.0453L31.533 10.7715H35.3988L34.1365 18.6765C33.5132 22.5856 31.1386 24.6407 27.1111 24.6407C23.0837 24.6407 21.3638 22.5856 21.991 18.6765L23.2533 10.7715H27.119H27.1151Z" fill="#050505"/>
<path d="M41.903 21.2448C39.9149 21.2448 39.0155 19.2764 39.3034 17.4698C39.5915 15.6632 41.118 13.7263 43.1061 13.7263C45.0942 13.7263 45.9975 15.6632 45.7096 17.4698C45.4216 19.2764 43.8911 21.2448 41.903 21.2448ZM40.763 10.7718H36.9012L33.6074 31.3588H37.4731L38.8183 22.937H38.8735C39.4731 24.0336 40.838 24.6371 42.2186 24.6371C46.2224 24.6371 49.0546 21.0791 49.6384 17.4185C50.2025 13.8881 48.4235 10.334 44.5893 10.334C43.1535 10.334 41.619 10.9651 40.5697 12.0026L40.767 10.7718H40.763Z" fill="#050505"/>
<path d="M55.2789 12.1721H55.3342C56.2966 10.9927 57.5589 10.3379 58.9948 10.3379C59.547 10.3379 60.0795 10.4799 60.545 10.6653L59.5036 14.2233C59.0855 13.8959 58.5609 13.7303 57.9849 13.7303C55.3065 13.7303 54.6517 16.0812 54.3204 18.1561L53.354 24.1953H49.4922L51.6381 10.7718H55.4998L55.275 12.1721H55.2789Z" fill="#050505"/>
<path d="M63.5277 15.7224C63.9459 14.326 65.0149 13.0124 66.5572 13.0124C68.0995 13.0124 68.7149 14.3536 68.6873 15.7224H63.5277ZM71.9495 18.097L72.0284 17.6316C72.6753 13.5844 71.2079 10.3301 66.7663 10.3301C62.3246 10.3301 59.6817 13.5292 59.0309 17.6039C58.38 21.6787 60.4746 24.6332 64.6717 24.6332C67.5118 24.6332 70.1271 23.1264 71.4919 20.448L68.0206 19.8721C67.3264 20.9411 66.4034 21.7063 65.1332 21.7063C63.1214 21.7063 62.7664 19.7893 63.0307 18.097H71.9455H71.9495Z" fill="#050505"/>
<path d="M77.5508 11.9789H77.606C78.5251 10.9099 79.9412 10.334 81.1837 10.334C82.8681 10.334 84.083 11.0164 84.7378 12.4404C85.7753 11.1269 87.4478 10.334 89.0217 10.334C92.4693 10.334 92.915 12.9059 92.4456 15.8328L91.1084 24.1953H87.2427L88.3708 17.1424C88.5799 15.8288 89.0532 13.395 87.148 13.395C85.0534 13.395 84.6274 16.2115 84.4065 17.6039L83.3493 24.1914H79.4876L80.5723 17.3869C80.7853 16.0734 81.377 13.395 79.3653 13.395C77.2115 13.395 76.8762 16.1838 76.6474 17.6039L75.5942 24.1914H71.7285L73.8783 10.7679H77.7401L77.5468 11.9749L77.5508 11.9789Z" fill="#050505"/>
<path d="M97.6196 15.7224C98.0338 14.326 99.1027 13.0124 100.645 13.0124C102.187 13.0124 102.807 14.3536 102.779 15.7224H97.6156H97.6196ZM106.041 18.097L106.116 17.6316C106.767 13.5844 105.3 10.3301 100.858 10.3301C96.4165 10.3301 93.7736 13.5292 93.1188 17.6039C92.4679 21.6787 94.5625 24.6332 98.7596 24.6332C101.604 24.6332 104.219 23.1264 105.584 20.448L102.116 19.8721C101.418 20.9411 100.495 21.7063 99.225 21.7063C97.2133 21.7063 96.8583 19.7893 97.1265 18.097H106.041Z" fill="#050505"/>
</g>
</g>
<defs>
<clipPath id="clip0_373_2937">
<rect width="113.605" height="34.3181" fill="white" transform="translate(0.0585938 0.330078)"/>
</clipPath>
</defs>
</svg>
