<svg width="28" height="28" viewBox="0 0 28 28" fill="none" xmlns="http://www.w3.org/2000/svg">
<path d="M20.3048 14.1961C20.8236 14.5759 21.4629 15.1642 22.2226 15.9609C23.1212 16.8966 23.7373 17.5081 24.0708 17.7953C24.4043 18.0825 24.5711 18.3974 24.5711 18.7402C24.5711 19.083 24.446 19.3841 24.1959 19.6435C23.9457 19.9029 23.6539 20.0326 23.3204 20.0326C23.061 20.0326 22.8016 19.9353 22.5422 19.7408C22.1716 19.4721 21.3795 18.7032 20.1659 17.434C19.2394 16.4612 18.3454 15.8081 17.4839 15.4746C16.7798 15.2152 16.4277 14.8307 16.4277 14.3212C16.4277 13.8579 16.7474 13.4735 17.3866 13.1678C18.2482 12.7509 19.1931 12.0004 20.2215 10.9165C21.6574 9.41571 22.5097 8.55413 22.7784 8.33179C23.0563 8.10018 23.3343 7.98438 23.6122 7.98438C23.9457 7.98438 24.2375 8.11408 24.4877 8.37348C24.7471 8.62361 24.8768 8.92007 24.8768 9.26285C24.8768 9.57783 24.7378 9.87429 24.4599 10.1522C23.5705 11.0972 22.1855 12.4451 20.3048 14.1961Z" fill="white"/>
<path d="M12.7929 13.5159C12.7929 13.8494 12.6215 14.1783 12.2787 14.5025C10.0738 16.5499 7.76237 18.3472 5.34439 19.8943C5.08499 20.0611 4.83949 20.1445 4.60788 20.1445C4.27436 20.1445 3.98254 20.0148 3.7324 19.7554C3.49153 19.4867 3.37109 19.1856 3.37109 18.8521C3.37109 18.4815 3.55175 18.1573 3.91306 17.8794L9.30488 13.766C8.48036 13.2194 7.46128 12.381 6.24766 11.2507C4.76537 9.85183 4.02423 8.88371 4.02423 8.34638C4.02423 8.01287 4.15393 7.72104 4.41333 7.47091C4.67273 7.22077 4.96919 7.0957 5.3027 7.0957C5.64548 7.0957 5.95583 7.2532 6.23376 7.56818C8.34602 9.93058 10.2591 11.5565 11.973 12.4458C12.5196 12.7238 12.7929 13.0804 12.7929 13.5159Z" fill="white"/>
<path d="M13.7987 27.2376C6.96114 27.2376 2.46634 25.3145 0.314293 21.4683C0.105444 21.0963 0.00101846 20.7743 0.00101848 20.5022C0.00101849 20.1937 0.114524 19.9216 0.341534 19.6857C0.559463 19.4499 0.818255 19.332 1.11791 19.332C1.52653 19.332 1.93968 19.595 2.35738 20.1212C2.68427 20.5385 3.01117 20.9603 3.33806 21.3866C5.49012 23.473 8.87256 24.5162 13.4854 24.5162C15.2742 24.5162 17.0948 24.2668 18.9472 23.7679C21.0721 23.1873 22.7065 22.3981 23.8507 21.4002C24.2684 20.983 24.6861 20.5702 25.1038 20.162C25.7121 19.5996 26.1752 19.3184 26.4931 19.3184C26.8199 19.3184 27.1105 19.4363 27.3648 19.6721C27.6281 19.9171 27.7598 20.2028 27.7598 20.5294C27.7598 20.738 27.6326 21.0283 27.3784 21.4002C26.1162 23.1964 24.0822 24.6478 21.2764 25.7545C18.752 26.7433 16.2595 27.2376 13.7987 27.2376Z" fill="white"/>
<path d="M13.9611 0.000634694C20.7986 0.000634776 25.2934 1.92376 27.4455 5.77001C27.6543 6.14194 27.7587 6.46397 27.7587 6.73611C27.7587 7.04454 27.6452 7.31668 27.4182 7.55253C27.2003 7.78839 26.9415 7.90632 26.6419 7.90632C26.2332 7.90632 25.8201 7.64325 25.4024 7.11711C25.0755 6.69983 24.7486 6.27801 24.4217 5.85165C22.2697 3.76524 18.8872 2.72204 14.2744 2.72204C12.4855 2.72204 10.6649 2.9715 8.81252 3.47043C6.68771 4.05099 5.05324 4.8402 3.90911 5.83805C3.49141 6.25533 3.07371 6.66808 2.65601 7.07629C2.04763 7.63871 1.58453 7.91992 1.26671 7.91992C0.93982 7.91992 0.649248 7.80199 0.394997 7.56614C0.131666 7.32121 1.0547e-08 7.03547 1.44413e-08 6.7089C1.69293e-08 6.50026 0.127125 6.20997 0.381376 5.83805C1.64355 4.04192 3.67756 2.5905 6.4834 1.4838C9.00775 0.495023 11.5003 0.000634665 13.9611 0.000634694Z" fill="white"/>
</svg>
